<?xml version="1.0" encoding="UTF-8"?>
<!-- Generator: Adobe Illustrator 27.8.0, SVG Export Plug-In . SVG Version: 6.00 Build 0)  -->
<svg version="1.1" id="Université_Laval" xmlns="http://www.w3.org/2000/svg" xmlns:xlink="http://www.w3.org/1999/xlink" x="0px" y="0px" viewBox="0 0 139.2 138.9" style="enable-background:new 0 0 139.2 138.9;" xml:space="preserve">
<style type="text/css">
	.st0{fill:#E30613;}
	.st1{fill:#FFCC00;}
	.st2{fill:#009FE3;}
	.st3{fill:#E3E3E3;}
</style>
<g>
	<path d="M15.5,0.9V108c0,9.2,7.1,16.4,16.2,16.4h25.5c3.4,0,7.8,2.3,10,8.7l1.2,3.6c0.3,0.7,0.7,1.2,1.2,1.2c0.5,0,0.9-0.5,1.2-1.2   l1.2-3.6c2.2-6.4,6.6-8.7,10-8.7h25.5c9.1,0,16.2-7.2,16.2-16.4V0.9H15.5z"/>
	<rect x="18.1" y="3.5" class="st0" width="41.9" height="49.6"/>
	<g>
		<path class="st0" d="M18.1,72.3V108c0,8.1,6.2,13.9,13.6,13.9h25.5c0.9,0,1.9,0.1,2.9,0.4v-50H18.1z"/>
	</g>
	<rect x="79.2" y="3.5" class="st0" width="41.9" height="49.6"/>
	<g>
		<path class="st0" d="M79.2,122.3c1-0.3,2-0.4,2.9-0.4h25.5c7.4,0,13.6-5.8,13.6-13.8V72.3H79.2V122.3z"/>
		<path class="st1" d="M79.2,53.1V3.5H60v49.6H18.1v19.2H60v50c3.6,1,7.5,4.1,9.6,10.1c2.1-6,6-9.1,9.6-10.1v-50h41.9V53.1H79.2z"/>
		<path d="M33.6,24c0.1,0.3-0.1,0.6-0.3,0.7c-0.4,0.2-1.7,0.3-2.2,0.2c0,0-0.6,1.1-1.6,1.1c-0.9,0-1.6-1.1-1.6-1.1    c-0.5,0.2-1.8,0.1-2.2-0.2c-0.2-0.1-0.4-0.4-0.3-0.7c0.3-1,1.1-4.3,1.4-5.5L25,19.1c-0.3,1.3-1.2,3.4-2.8,3.5    c-0.2,0-0.6-0.1-0.5-0.3c0.2-1.8,1.3-9.8,1.4-10.5c0.1-0.8,0.3-1.1,0.9-1.3c0.5-0.2,0.9,0,1.5,0.5c0.4,0.4,2,1.8,2,1.8    s0.2-1.3,0.2-1.7h-0.4c-0.2,0-0.4-0.2-0.4-0.4L27,9.1c0-0.2,0.1-0.3,0.2-0.4c0,0,0.7-0.3,1.2-0.5C29,8,29.4,8,29.4,8    c0.4,0,0.8,0.1,1.1,0.4c0.3,0.3,0.5,0.6,0.6,1.1l0.4,3.4c0,0,1.6-1.4,2-1.8c0.6-0.5,0.9-0.6,1.5-0.5c0.5,0.2,0.8,0.5,0.9,1.3    c0.1,0.8,1.2,8.8,1.4,10.5c0,0.2-0.3,0.3-0.5,0.3c-1.6-0.1-2.5-2.2-2.8-3.5l-1.7-0.6C32.4,19.6,33.3,22.9,33.6,24"/>
		<path d="M52.8,24c0.1,0.3-0.1,0.6-0.3,0.7c-0.4,0.2-1.7,0.3-2.2,0.2c0,0-0.6,1.1-1.6,1.1c-0.9,0-1.6-1.1-1.6-1.1    c-0.5,0.2-1.8,0.1-2.2-0.2c-0.2-0.1-0.4-0.4-0.3-0.7c0.3-1,1.1-4.3,1.4-5.5l-1.7,0.6c-0.3,1.3-1.2,3.4-2.8,3.5    c-0.2,0-0.5-0.1-0.5-0.3c0.2-1.8,1.3-9.8,1.4-10.5c0.1-0.8,0.3-1.1,0.9-1.3c0.5-0.2,0.9,0,1.5,0.5c0.4,0.4,2,1.8,2,1.8    s0.2-1.3,0.2-1.7h-0.4c-0.2,0-0.4-0.2-0.4-0.4l0.2-1.6c0-0.2,0.1-0.3,0.2-0.4c0,0,0.7-0.3,1.2-0.5c0.6-0.2,1-0.2,1-0.2    c0.5,0,0.8,0.1,1.1,0.4c0.3,0.3,0.5,0.6,0.6,1.1l0.4,3.4c0,0,1.6-1.4,2-1.8c0.6-0.5,0.9-0.6,1.5-0.5c0.5,0.2,0.8,0.5,0.9,1.3    c0.1,0.8,1.2,8.8,1.4,10.5c0,0.2-0.3,0.3-0.5,0.3c-1.6-0.1-2.5-2.2-2.8-3.5l-1.7-0.6C51.7,19.6,52.5,22.9,52.8,24"/>
		<path d="M33.6,46.6c0.1,0.3-0.1,0.6-0.3,0.7c-0.4,0.2-1.7,0.3-2.2,0.2c0,0-0.6,1.1-1.6,1.1c-0.9,0-1.6-1.1-1.6-1.1    c-0.5,0.2-1.8,0.1-2.2-0.2c-0.2-0.1-0.4-0.4-0.3-0.7c0.3-1,1.1-4.3,1.4-5.5L25,41.8c-0.3,1.3-1.2,3.4-2.8,3.5    c-0.2,0-0.6-0.1-0.5-0.3c0.2-1.8,1.3-9.8,1.4-10.5c0.1-0.8,0.3-1.1,0.9-1.3c0.5-0.2,0.9,0,1.5,0.5c0.4,0.4,2,1.8,2,1.8    s0.2-1.3,0.2-1.7h-0.4c-0.2,0-0.4-0.2-0.4-0.4l0.2-1.6c0-0.2,0.1-0.3,0.2-0.4c0,0,0.7-0.3,1.2-0.5c0.6-0.2,1-0.2,1-0.2    c0.4,0,0.8,0.1,1.1,0.4c0.3,0.3,0.5,0.6,0.6,1.1l0.4,3.4c0,0,1.6-1.4,2-1.8c0.6-0.5,0.9-0.6,1.5-0.5c0.5,0.2,0.8,0.5,0.9,1.3    c0.1,0.8,1.2,8.8,1.4,10.5c0,0.2-0.3,0.3-0.5,0.3c-1.6-0.1-2.5-2.2-2.8-3.5l-1.7-0.6C32.4,42.3,33.3,45.6,33.6,46.6"/>
		<path d="M52.8,46.6c0.1,0.3-0.1,0.6-0.3,0.7c-0.4,0.2-1.7,0.3-2.2,0.2c0,0-0.6,1.1-1.6,1.1c-0.9,0-1.6-1.1-1.6-1.1    c-0.5,0.2-1.8,0.1-2.2-0.2c-0.2-0.1-0.4-0.4-0.3-0.7c0.3-1,1.1-4.3,1.4-5.5l-1.7,0.6c-0.3,1.3-1.2,3.4-2.8,3.5    c-0.2,0-0.5-0.1-0.5-0.3c0.2-1.8,1.3-9.8,1.4-10.5c0.1-0.8,0.3-1.1,0.9-1.3c0.5-0.2,0.9,0,1.5,0.5c0.4,0.4,2,1.8,2,1.8    s0.2-1.3,0.2-1.7h-0.4c-0.2,0-0.4-0.2-0.4-0.4l0.2-1.6c0-0.2,0.1-0.3,0.2-0.4c0,0,0.7-0.3,1.2-0.5c0.6-0.2,1-0.2,1-0.2    c0.5,0,0.8,0.1,1.1,0.4c0.3,0.3,0.5,0.6,0.6,1.1l0.4,3.4c0,0,1.6-1.4,2-1.8c0.6-0.5,0.9-0.6,1.5-0.5c0.5,0.2,0.8,0.5,0.9,1.3    c0.1,0.8,1.2,8.8,1.4,10.5c0,0.2-0.3,0.3-0.5,0.3c-1.6-0.1-2.5-2.2-2.8-3.5l-1.7-0.6C51.7,42.3,52.5,45.6,52.8,46.6"/>
		<path d="M94.7,24c0.1,0.3-0.1,0.6-0.3,0.7c-0.4,0.2-1.7,0.3-2.2,0.2c0,0-0.6,1.1-1.6,1.1c-0.9,0-1.6-1.1-1.6-1.1    c-0.5,0.2-1.8,0.1-2.2-0.2c-0.2-0.1-0.4-0.4-0.3-0.7c0.3-1,1.1-4.3,1.4-5.5l-1.7,0.6c-0.3,1.3-1.2,3.4-2.8,3.5    c-0.2,0-0.5-0.1-0.5-0.3c0.2-1.8,1.3-9.8,1.4-10.5c0.1-0.8,0.3-1.1,0.9-1.3c0.5-0.2,0.9,0,1.5,0.5c0.4,0.4,2,1.8,2,1.8    s0.2-1.3,0.2-1.7h-0.4c-0.2,0-0.4-0.2-0.4-0.4l0.2-1.6c0-0.2,0.1-0.3,0.2-0.4c0,0,0.7-0.3,1.2-0.5c0.6-0.2,1-0.2,1-0.2    c0.4,0,0.8,0.1,1.1,0.4C92,8.6,92.2,9,92.2,9.4l0.4,3.4c0,0,1.6-1.4,2-1.8c0.6-0.5,0.9-0.6,1.5-0.5c0.5,0.2,0.8,0.5,0.9,1.3    c0.1,0.8,1.2,8.8,1.4,10.5c0,0.2-0.3,0.3-0.5,0.3c-1.6-0.1-2.5-2.2-2.8-3.5l-1.7-0.6C93.6,19.6,94.4,22.9,94.7,24"/>
		<path d="M113.9,24c0.1,0.3-0.1,0.6-0.3,0.7c-0.4,0.2-1.7,0.3-2.2,0.2c0,0-0.6,1.1-1.6,1.1s-1.6-1.1-1.6-1.1    c-0.5,0.2-1.8,0.1-2.2-0.2c-0.2-0.1-0.4-0.4-0.3-0.7c0.3-1,1.1-4.3,1.4-5.5l-1.7,0.6c-0.3,1.3-1.2,3.4-2.8,3.5    c-0.2,0-0.5-0.1-0.5-0.3c0.2-1.8,1.3-9.8,1.4-10.5c0.1-0.8,0.3-1.1,0.9-1.3c0.5-0.2,0.9,0,1.5,0.5c0.4,0.4,2,1.8,2,1.8    s0.2-1.3,0.2-1.7h-0.4c-0.2,0-0.4-0.2-0.4-0.4l0.2-1.6c0-0.2,0.1-0.3,0.2-0.4c0,0,0.7-0.3,1.2-0.5c0.6-0.2,1-0.2,1-0.2    c0.4,0,0.8,0.1,1.1,0.4c0.3,0.3,0.5,0.6,0.6,1.1l0.4,3.4c0,0,1.6-1.4,2-1.8c0.6-0.5,0.9-0.6,1.5-0.5c0.5,0.2,0.8,0.5,0.9,1.3    c0.1,0.8,1.2,8.8,1.4,10.5c0,0.2-0.3,0.3-0.5,0.3c-1.6-0.1-2.5-2.2-2.8-3.5l-1.7-0.6C112.8,19.6,113.6,22.9,113.9,24"/>
		<path d="M94.7,46.6c0.1,0.3-0.1,0.6-0.3,0.7c-0.4,0.2-1.7,0.3-2.2,0.2c0,0-0.6,1.1-1.6,1.1c-0.9,0-1.6-1.1-1.6-1.1    c-0.5,0.2-1.8,0.1-2.2-0.2c-0.2-0.1-0.4-0.4-0.3-0.7c0.3-1,1.1-4.3,1.4-5.5l-1.7,0.6c-0.3,1.3-1.2,3.4-2.8,3.5    c-0.2,0-0.5-0.1-0.5-0.3c0.2-1.8,1.3-9.8,1.4-10.5c0.1-0.8,0.3-1.1,0.9-1.3c0.5-0.2,0.9,0,1.5,0.5c0.4,0.4,2,1.8,2,1.8    s0.2-1.3,0.2-1.7h-0.4c-0.2,0-0.4-0.2-0.4-0.4l0.2-1.6c0-0.2,0.1-0.3,0.2-0.4c0,0,0.7-0.3,1.2-0.5c0.6-0.2,1-0.2,1-0.2    c0.4,0,0.8,0.1,1.1,0.4c0.3,0.3,0.5,0.6,0.6,1.1l0.4,3.4c0,0,1.6-1.4,2-1.8c0.6-0.5,0.9-0.6,1.5-0.5c0.5,0.2,0.8,0.5,0.9,1.3    c0.1,0.8,1.2,8.8,1.4,10.5c0,0.2-0.3,0.3-0.5,0.3c-1.6-0.1-2.5-2.2-2.8-3.5l-1.7-0.6C93.6,42.3,94.4,45.6,94.7,46.6"/>
		<path d="M113.9,46.6c0.1,0.3-0.1,0.6-0.3,0.7c-0.4,0.2-1.7,0.3-2.2,0.2c0,0-0.6,1.1-1.6,1.1s-1.6-1.1-1.6-1.1    c-0.5,0.2-1.8,0.1-2.2-0.2c-0.2-0.1-0.4-0.4-0.3-0.7c0.3-1,1.1-4.3,1.4-5.5l-1.7,0.6c-0.3,1.3-1.2,3.4-2.8,3.5    c-0.2,0-0.5-0.1-0.5-0.3c0.2-1.8,1.3-9.8,1.4-10.5c0.1-0.8,0.3-1.1,0.9-1.3c0.5-0.2,0.9,0,1.5,0.5c0.4,0.4,2,1.8,2,1.8    s0.2-1.3,0.2-1.7h-0.4c-0.2,0-0.4-0.2-0.4-0.4l0.2-1.6c0-0.2,0.1-0.3,0.2-0.4c0,0,0.7-0.3,1.2-0.5c0.6-0.2,1-0.2,1-0.2    c0.4,0,0.8,0.1,1.1,0.4c0.3,0.3,0.5,0.6,0.6,1.1l0.4,3.4c0,0,1.6-1.4,2-1.8c0.6-0.5,0.9-0.6,1.5-0.5c0.5,0.2,0.8,0.5,0.9,1.3    c0.1,0.8,1.2,8.8,1.4,10.5c0,0.2-0.3,0.3-0.5,0.3c-1.6-0.1-2.5-2.2-2.8-3.5l-1.7-0.6C112.8,42.3,113.6,45.6,113.9,46.6"/>
		<path d="M33.6,92.7c0.1,0.3-0.1,0.6-0.3,0.7c-0.4,0.2-1.7,0.3-2.2,0.2c0,0-0.6,1.1-1.6,1.1c-0.9,0-1.6-1.1-1.6-1.1    c-0.5,0.2-1.8,0.1-2.2-0.2c-0.2-0.1-0.4-0.4-0.3-0.7c0.3-1,1.1-4.3,1.4-5.5L25,87.9c-0.3,1.3-1.2,3.4-2.8,3.5    c-0.2,0-0.6-0.1-0.5-0.3c0.2-1.8,1.3-9.8,1.4-10.5c0.1-0.8,0.3-1.1,0.9-1.3c0.5-0.2,0.9,0,1.5,0.5c0.4,0.4,2,1.8,2,1.8    s0.2-1.3,0.2-1.7h-0.4c-0.2,0-0.4-0.2-0.4-0.4l0.2-1.6c0-0.2,0.1-0.3,0.2-0.4c0,0,0.7-0.3,1.2-0.5c0.6-0.2,1-0.2,1-0.2    c0.4,0,0.8,0.1,1.1,0.4c0.3,0.3,0.5,0.6,0.6,1.1l0.4,3.4c0,0,1.6-1.4,2-1.8c0.6-0.5,0.9-0.6,1.5-0.5c0.5,0.2,0.8,0.5,0.9,1.3    c0.1,0.8,1.2,8.8,1.4,10.5c0,0.2-0.3,0.3-0.5,0.3c-1.6-0.1-2.5-2.2-2.8-3.5l-1.7-0.6C32.4,88.4,33.3,91.7,33.6,92.7"/>
		<path d="M52.8,92.7c0.1,0.3-0.1,0.6-0.3,0.7c-0.4,0.2-1.7,0.3-2.2,0.2c0,0-0.6,1.1-1.6,1.1c-0.9,0-1.6-1.1-1.6-1.1    c-0.5,0.2-1.8,0.1-2.2-0.2c-0.2-0.1-0.4-0.4-0.3-0.7c0.3-1,1.1-4.3,1.4-5.5l-1.7,0.6c-0.3,1.3-1.2,3.4-2.8,3.5    c-0.2,0-0.5-0.1-0.5-0.3c0.2-1.8,1.3-9.8,1.4-10.5c0.1-0.8,0.3-1.1,0.9-1.3c0.5-0.2,0.9,0,1.5,0.5c0.4,0.4,2,1.8,2,1.8    s0.2-1.3,0.2-1.7h-0.4c-0.2,0-0.4-0.2-0.4-0.4l0.2-1.6c0-0.2,0.1-0.3,0.2-0.4c0,0,0.7-0.3,1.2-0.5c0.6-0.2,1-0.2,1-0.2    c0.5,0,0.8,0.1,1.1,0.4c0.3,0.3,0.5,0.6,0.6,1.1l0.4,3.4c0,0,1.6-1.4,2-1.8c0.6-0.5,0.9-0.6,1.5-0.5c0.5,0.2,0.8,0.5,0.9,1.3    c0.1,0.8,1.2,8.8,1.4,10.5c0,0.2-0.3,0.3-0.5,0.3c-1.6-0.1-2.5-2.2-2.8-3.5l-1.7-0.6C51.7,88.4,52.5,91.7,52.8,92.7"/>
		<path d="M33.6,115.4c0.1,0.3-0.1,0.6-0.3,0.7c-0.4,0.2-1.7,0.3-2.2,0.2c0,0-0.6,1.1-1.6,1.1c-0.9,0-1.6-1.1-1.6-1.1    c-0.5,0.2-1.8,0.1-2.2-0.2c-0.2-0.1-0.4-0.4-0.3-0.7c0.3-1,1.1-4.3,1.4-5.5l-1.7,0.6c-0.3,1.3-1.2,3.4-2.8,3.5    c-0.2,0-0.6-0.1-0.5-0.3c0.2-1.8,1.3-9.8,1.4-10.5c0.1-0.8,0.3-1.1,0.9-1.3c0.5-0.2,0.9,0,1.5,0.5c0.4,0.4,2,1.8,2,1.8    s0.2-1.3,0.2-1.7h-0.4c-0.2,0-0.4-0.2-0.4-0.4l0.2-1.6c0-0.2,0.1-0.3,0.2-0.4c0,0,0.7-0.3,1.2-0.5c0.6-0.2,1-0.2,1-0.2    c0.4,0,0.8,0.1,1.1,0.4c0.3,0.3,0.5,0.6,0.6,1.1l0.4,3.4c0,0,1.6-1.4,2-1.8c0.6-0.5,0.9-0.6,1.5-0.5c0.5,0.2,0.8,0.5,0.9,1.3    c0.1,0.8,1.2,8.8,1.4,10.5c0,0.2-0.3,0.3-0.5,0.3c-1.6-0.1-2.5-2.2-2.8-3.5l-1.7-0.6C32.4,111.1,33.3,114.4,33.6,115.4"/>
		<path d="M52.8,115.4c0.1,0.3-0.1,0.6-0.3,0.7c-0.4,0.2-1.7,0.3-2.2,0.2c0,0-0.6,1.1-1.6,1.1c-0.9,0-1.6-1.1-1.6-1.1    c-0.5,0.2-1.8,0.1-2.2-0.2c-0.2-0.1-0.4-0.4-0.3-0.7c0.3-1,1.1-4.3,1.4-5.5l-1.7,0.6c-0.3,1.3-1.2,3.4-2.8,3.5    c-0.2,0-0.5-0.1-0.5-0.3c0.2-1.8,1.3-9.8,1.4-10.5c0.1-0.8,0.3-1.1,0.9-1.3c0.5-0.2,0.9,0,1.5,0.5c0.4,0.4,2,1.8,2,1.8    s0.2-1.3,0.2-1.7h-0.4c-0.2,0-0.4-0.2-0.4-0.4l0.2-1.6c0-0.2,0.1-0.3,0.2-0.4c0,0,0.7-0.3,1.2-0.5c0.6-0.2,1-0.2,1-0.2    c0.5,0,0.8,0.1,1.1,0.4c0.3,0.3,0.5,0.6,0.6,1.1l0.4,3.4c0,0,1.6-1.4,2-1.8c0.6-0.5,0.9-0.6,1.5-0.5c0.5,0.2,0.8,0.5,0.9,1.3    c0.1,0.8,1.2,8.8,1.4,10.5c0,0.2-0.3,0.3-0.5,0.3c-1.6-0.1-2.5-2.2-2.8-3.5l-1.7-0.6C51.7,111.1,52.5,114.4,52.8,115.4"/>
		<path d="M94.7,92.7c0.1,0.3-0.1,0.6-0.3,0.7c-0.4,0.2-1.7,0.3-2.2,0.2c0,0-0.6,1.1-1.6,1.1c-0.9,0-1.6-1.1-1.6-1.1    c-0.5,0.2-1.8,0.1-2.2-0.2c-0.2-0.1-0.4-0.4-0.3-0.7c0.3-1,1.1-4.3,1.4-5.5l-1.7,0.6c-0.3,1.3-1.2,3.4-2.8,3.5    c-0.2,0-0.5-0.1-0.5-0.3c0.2-1.8,1.3-9.8,1.4-10.5c0.1-0.8,0.3-1.1,0.9-1.3c0.5-0.2,0.9,0,1.5,0.5c0.4,0.4,2,1.8,2,1.8    s0.2-1.3,0.2-1.7h-0.4c-0.2,0-0.4-0.2-0.4-0.4l0.2-1.6c0-0.2,0.1-0.3,0.2-0.4c0,0,0.7-0.3,1.2-0.5c0.6-0.2,1-0.2,1-0.2    c0.4,0,0.8,0.1,1.1,0.4c0.3,0.3,0.5,0.6,0.6,1.1l0.4,3.4c0,0,1.6-1.4,2-1.8c0.6-0.5,0.9-0.6,1.5-0.5c0.5,0.2,0.8,0.5,0.9,1.3    c0.1,0.8,1.2,8.8,1.4,10.5c0,0.2-0.3,0.3-0.5,0.3c-1.6-0.1-2.5-2.2-2.8-3.5l-1.7-0.6C93.6,88.4,94.4,91.7,94.7,92.7"/>
		<path d="M113.9,92.7c0.1,0.3-0.1,0.6-0.3,0.7c-0.4,0.2-1.7,0.3-2.2,0.2c0,0-0.6,1.1-1.6,1.1s-1.6-1.1-1.6-1.1    c-0.5,0.2-1.8,0.1-2.2-0.2c-0.2-0.1-0.4-0.4-0.3-0.7c0.3-1,1.1-4.3,1.4-5.5l-1.7,0.6c-0.3,1.3-1.2,3.4-2.8,3.5    c-0.2,0-0.5-0.1-0.5-0.3c0.2-1.8,1.3-9.8,1.4-10.5c0.1-0.8,0.3-1.1,0.9-1.3c0.5-0.2,0.9,0,1.5,0.5c0.4,0.4,2,1.8,2,1.8    s0.2-1.3,0.2-1.7h-0.4c-0.2,0-0.4-0.2-0.4-0.4l0.2-1.6c0-0.2,0.1-0.3,0.2-0.4c0,0,0.7-0.3,1.2-0.5c0.6-0.2,1-0.2,1-0.2    c0.4,0,0.8,0.1,1.1,0.4c0.3,0.3,0.5,0.6,0.6,1.1l0.4,3.4c0,0,1.6-1.4,2-1.8c0.6-0.5,0.9-0.6,1.5-0.5c0.5,0.2,0.8,0.5,0.9,1.3    c0.1,0.8,1.2,8.8,1.4,10.5c0,0.2-0.3,0.3-0.5,0.3c-1.6-0.1-2.5-2.2-2.8-3.5l-1.7-0.6C112.8,88.4,113.6,91.7,113.9,92.7"/>
		<path d="M94.7,115.4c0.1,0.3-0.1,0.6-0.3,0.7c-0.4,0.2-1.7,0.3-2.2,0.2c0,0-0.6,1.1-1.6,1.1c-0.9,0-1.6-1.1-1.6-1.1    c-0.5,0.2-1.8,0.1-2.2-0.2c-0.2-0.1-0.4-0.4-0.3-0.7c0.3-1,1.1-4.3,1.4-5.5l-1.7,0.6c-0.3,1.3-1.2,3.4-2.8,3.5    c-0.2,0-0.5-0.1-0.5-0.3c0.2-1.8,1.3-9.8,1.4-10.5c0.1-0.8,0.3-1.1,0.9-1.3c0.5-0.2,0.9,0,1.5,0.5c0.4,0.4,2,1.8,2,1.8    s0.2-1.3,0.2-1.7h-0.4c-0.2,0-0.4-0.2-0.4-0.4l0.2-1.6c0-0.2,0.1-0.3,0.2-0.4c0,0,0.7-0.3,1.2-0.5c0.6-0.2,1-0.2,1-0.2    c0.4,0,0.8,0.1,1.1,0.4c0.3,0.3,0.5,0.6,0.6,1.1l0.4,3.4c0,0,1.6-1.4,2-1.8c0.6-0.5,0.9-0.6,1.5-0.5c0.5,0.2,0.8,0.5,0.9,1.3    c0.1,0.8,1.2,8.8,1.4,10.5c0,0.2-0.3,0.3-0.5,0.3c-1.6-0.1-2.5-2.2-2.8-3.5l-1.7-0.6C93.6,111.1,94.4,114.4,94.7,115.4"/>
		<path d="M113.9,115.4c0.1,0.3-0.1,0.6-0.3,0.7c-0.4,0.2-1.7,0.3-2.2,0.2c0,0-0.6,1.1-1.6,1.1s-1.6-1.1-1.6-1.1    c-0.5,0.2-1.8,0.1-2.2-0.2c-0.2-0.1-0.4-0.4-0.3-0.7c0.3-1,1.1-4.3,1.4-5.5l-1.7,0.6c-0.3,1.3-1.2,3.4-2.8,3.5    c-0.2,0-0.5-0.1-0.5-0.3c0.2-1.8,1.3-9.8,1.4-10.5c0.1-0.8,0.3-1.1,0.9-1.3c0.5-0.2,0.9,0,1.5,0.5c0.4,0.4,2,1.8,2,1.8    s0.2-1.3,0.2-1.7h-0.4c-0.2,0-0.4-0.2-0.4-0.4l0.2-1.6c0-0.2,0.1-0.3,0.2-0.4c0,0,0.7-0.3,1.2-0.5c0.6-0.2,1-0.2,1-0.2    c0.4,0,0.8,0.1,1.1,0.4c0.3,0.3,0.5,0.6,0.6,1.1l0.4,3.4c0,0,1.6-1.4,2-1.8c0.6-0.5,0.9-0.6,1.5-0.5c0.5,0.2,0.8,0.5,0.9,1.3    c0.1,0.8,1.2,8.8,1.4,10.5c0,0.2-0.3,0.3-0.5,0.3c-1.6-0.1-2.5-2.2-2.8-3.5l-1.7-0.6C112.8,111.1,113.6,114.4,113.9,115.4"/>
		<path d="M69.6,35.3c0.8,0,1.5-0.4,2-1.1c0.3,0.2,0.7,0.3,1.1,0.3c1.2,0,2.2-0.9,2.3-2.1c1.3,0,2.3-1.1,2.3-2.3    c0-0.6-0.2-1.1-0.6-1.5c-0.6-0.7-2.6-3.1-2.6-3.2v-1.3c0-0.6-0.5-1.1-1.1-1.1h-1.2c-0.1-0.1-1-1-1.1-1.1c-0.3-0.3-0.7-0.5-1.1-0.5    c-0.4,0-0.8,0.2-1.1,0.5c0,0-0.9,0.9-1.1,1.1h-1.2c-0.6,0-1.1,0.5-1.1,1.1v1.3c0,0-2.1,2.5-2.6,3.2C62.2,29,62,29.5,62,30.1    c0,1.3,1,2.3,2.3,2.3c0.1,1.2,1.1,2.1,2.3,2.1c0.4,0,0.8-0.1,1.1-0.3C68.1,34.9,68.8,35.3,69.6,35.3"/>
		<path d="M69.6,69.7c0.8,0,1.5-0.4,2-1.1c0.3,0.2,0.7,0.3,1.1,0.3c1.2,0,2.2-0.9,2.3-2.1c1.3,0,2.3-1.1,2.3-2.3    c0-0.6-0.2-1.1-0.6-1.5c-0.6-0.7-2.6-3.1-2.6-3.2v-1.3c0-0.6-0.5-1.1-1.1-1.1h-1.2c-0.1-0.1-1-1-1.1-1.1c-0.3-0.3-0.7-0.5-1.1-0.5    c-0.4,0-0.8,0.2-1.1,0.5c0,0-0.9,0.9-1.1,1.1h-1.2c-0.6,0-1.1,0.5-1.1,1.1v1.3c0,0-2.1,2.5-2.6,3.2c-0.4,0.4-0.6,0.9-0.6,1.5    c0,1.3,1,2.3,2.3,2.3c0.1,1.2,1.1,2.1,2.3,2.1c0.4,0,0.8-0.1,1.1-0.3C68.1,69.3,68.8,69.7,69.6,69.7"/>
		<path d="M39.1,69.7c0.8,0,1.5-0.4,2-1.1c0.3,0.2,0.7,0.3,1.1,0.3c1.2,0,2.2-0.9,2.3-2.1c1.3,0,2.3-1.1,2.3-2.3    c0-0.6-0.2-1.1-0.6-1.5c-0.6-0.7-2.6-3.1-2.6-3.2v-1.3c0-0.6-0.5-1.1-1.1-1.1h-1.2c-0.1-0.1-1-1-1.1-1.1c-0.3-0.3-0.7-0.5-1.1-0.5    c-0.4,0-0.8,0.2-1.1,0.5c0,0-0.9,0.9-1.1,1.1h-1.2c-0.6,0-1.1,0.5-1.1,1.1v1.3c0,0-2.1,2.5-2.6,3.2c-0.4,0.4-0.6,0.9-0.6,1.5    c0,1.3,1,2.3,2.3,2.3c0.1,1.2,1.1,2.1,2.3,2.1c0.4,0,0.8-0.1,1.1-0.3C37.5,69.3,38.2,69.7,39.1,69.7"/>
		<path d="M100.2,69.7c0.8,0,1.5-0.4,2-1.1c0.3,0.2,0.7,0.3,1.1,0.3c1.2,0,2.2-0.9,2.3-2.1c1.3,0,2.3-1.1,2.3-2.3    c0-0.6-0.2-1.1-0.6-1.5c-0.6-0.7-2.6-3.1-2.6-3.2v-1.3c0-0.6-0.5-1.1-1.1-1.1h-1.2c-0.1-0.1-1-1-1.1-1.1c-0.3-0.3-0.7-0.5-1.1-0.5    c-0.4,0-0.8,0.2-1.1,0.5c0,0-0.9,0.9-1.1,1.1h-1.2c-0.6,0-1.1,0.5-1.1,1.1v1.3c0,0-2.1,2.5-2.6,3.2c-0.4,0.4-0.6,0.9-0.6,1.5    c0,1.3,1,2.3,2.3,2.3c0.1,1.2,1.1,2.1,2.3,2.1c0.4,0,0.8-0.1,1.1-0.3C98.6,69.3,99.3,69.7,100.2,69.7"/>
		<path d="M69.6,104.1c0.8,0,1.5-0.4,2-1.1c0.3,0.2,0.7,0.3,1.1,0.3c1.2,0,2.2-0.9,2.3-2.1c1.3,0,2.3-1.1,2.3-2.3    c0-0.6-0.2-1.1-0.6-1.5c-0.6-0.7-2.6-3.1-2.6-3.2v-1.3c0-0.6-0.5-1.1-1.1-1.1h-1.2c-0.1-0.1-1-1-1.1-1.1c-0.3-0.3-0.7-0.5-1.1-0.5    c-0.4,0-0.8,0.2-1.1,0.5c0,0-0.9,0.9-1.1,1.1h-1.2c-0.6,0-1.1,0.5-1.1,1.1v1.3c0,0-2.1,2.5-2.6,3.2c-0.4,0.4-0.6,0.9-0.6,1.5    c0,1.3,1,2.3,2.3,2.3c0.1,1.2,1.1,2.1,2.3,2.1c0.4,0,0.8-0.1,1.1-0.3C68.1,103.7,68.8,104.1,69.6,104.1"/>
		<path class="st2" d="M69.6,34.6c0.5,0,1-0.3,1.3-0.8l-0.4-4.2c0-0.2,0.1-0.3,0.3-0.3c0.2,0,0.3,0.1,0.4,0.3l0.7,4.1    c0.2,0.1,0.5,0.2,0.8,0.2c0.8,0,1.5-0.6,1.6-1.4l-1.7-4c-0.1-0.2,0-0.3,0.2-0.4c0.2-0.1,0.3,0,0.4,0.1l1.9,3.6c0,0,0,0,0,0    c0.9,0,1.6-0.7,1.6-1.6c0-0.3,0-0.6-0.2-0.8l-3-3.6v-1.6c0-0.2-0.1-0.3-0.3-0.3h-1.5l-1.3-1.3c-0.1-0.1-0.3-0.2-0.5-0.2    c-0.2,0-0.4,0.1-0.5,0.2l-1.3,1.3h-1.5c-0.2,0-0.3,0.2-0.3,0.3v1.6l-3,3.6c-0.2,0.2-0.2,0.5-0.2,0.8c0,0.9,0.7,1.6,1.6,1.6    c0,0,0,0,0,0l1.9-3.6c0.1-0.1,0.3-0.2,0.4-0.1c0.2,0.1,0.2,0.3,0.2,0.4l-1.7,4c0.1,0.8,0.7,1.4,1.6,1.4c0.3,0,0.5-0.1,0.8-0.2    l0.7-4.1c0-0.2,0.2-0.3,0.4-0.3c0.2,0,0.3,0.2,0.3,0.3l-0.4,4.2C68.6,34.3,69.1,34.6,69.6,34.6"/>
		<path class="st2" d="M69.6,69c0.5,0,1-0.3,1.3-0.8L70.4,64c0-0.2,0.1-0.3,0.3-0.3c0.2,0,0.3,0.1,0.4,0.3l0.7,4.1    c0.2,0.1,0.5,0.2,0.8,0.2c0.8,0,1.5-0.6,1.6-1.4l-1.7-4c-0.1-0.2,0-0.3,0.2-0.4c0.2-0.1,0.3,0,0.4,0.1l1.9,3.6c0,0,0,0,0,0    c0.9,0,1.6-0.7,1.6-1.6c0-0.3,0-0.6-0.2-0.8l-3-3.6v-1.6c0-0.2-0.1-0.3-0.3-0.3h-1.5l-1.3-1.3c-0.1-0.1-0.3-0.2-0.5-0.2    c-0.2,0-0.4,0.1-0.5,0.2l-1.3,1.3h-1.5c-0.2,0-0.3,0.2-0.3,0.3v1.6l-3,3.6c-0.2,0.2-0.2,0.5-0.2,0.8c0,0.9,0.7,1.6,1.6,1.6    c0,0,0,0,0,0l1.9-3.6c0.1-0.1,0.3-0.2,0.4-0.1c0.2,0.1,0.2,0.3,0.2,0.4l-1.7,4c0.1,0.8,0.7,1.4,1.6,1.4c0.3,0,0.5-0.1,0.8-0.2    l0.7-4.1c0-0.2,0.2-0.3,0.4-0.3c0.2,0,0.3,0.2,0.3,0.3l-0.4,4.2C68.6,68.6,69.1,68.9,69.6,69"/>
		<path class="st2" d="M39.1,69c0.5,0,1-0.3,1.3-0.8L39.9,64c0-0.2,0.1-0.3,0.3-0.3c0.2,0,0.3,0.1,0.4,0.3l0.7,4.1    c0.2,0.1,0.5,0.2,0.8,0.2c0.8,0,1.5-0.6,1.6-1.4l-1.7-4c-0.1-0.2,0-0.3,0.2-0.4c0.2-0.1,0.3,0,0.4,0.1l1.9,3.6c0,0,0,0,0,0    c0.9,0,1.6-0.7,1.6-1.6c0-0.3,0-0.6-0.2-0.8l-3-3.6v-1.6c0-0.2-0.1-0.3-0.3-0.3h-1.5l-1.3-1.3c-0.1-0.1-0.3-0.2-0.5-0.2    c-0.2,0-0.4,0.1-0.5,0.2l-1.3,1.3h-1.5c-0.2,0-0.3,0.2-0.3,0.3v1.6l-3,3.6c-0.2,0.2-0.2,0.5-0.2,0.8c0,0.9,0.7,1.6,1.6,1.6    c0,0,0,0,0,0l1.9-3.6c0.1-0.1,0.3-0.2,0.4-0.1c0.2,0.1,0.2,0.3,0.2,0.4l-1.7,4c0.1,0.8,0.7,1.4,1.6,1.4c0.3,0,0.5-0.1,0.8-0.2    l0.7-4.1c0-0.2,0.2-0.3,0.4-0.3c0.2,0,0.3,0.2,0.3,0.3l-0.4,4.2C38,68.6,38.5,68.9,39.1,69"/>
		<path class="st2" d="M100.2,69c0.5,0,1-0.3,1.3-0.8L101,64c0-0.2,0.1-0.3,0.3-0.3c0.2,0,0.3,0.1,0.4,0.3l0.7,4.1    c0.2,0.1,0.5,0.2,0.8,0.2c0.8,0,1.5-0.6,1.6-1.4l-1.7-4c-0.1-0.2,0-0.3,0.2-0.4c0.1-0.1,0.3,0,0.4,0.1l1.9,3.6c0,0,0,0,0,0    c0.9,0,1.6-0.7,1.6-1.6c0-0.3,0-0.6-0.2-0.8l-3-3.6v-1.6c0-0.2-0.1-0.3-0.3-0.3H102l-1.3-1.3c-0.1-0.1-0.3-0.2-0.5-0.2    c-0.2,0-0.4,0.1-0.5,0.2l-1.3,1.3h-1.5c-0.2,0-0.3,0.2-0.3,0.3v1.6l-3,3.6c-0.2,0.2-0.2,0.5-0.2,0.8c0,0.9,0.7,1.6,1.6,1.6    c0,0,0,0,0,0l1.9-3.6c0.1-0.1,0.3-0.2,0.4-0.1c0.2,0.1,0.2,0.3,0.2,0.4l-1.7,4c0.1,0.8,0.7,1.4,1.6,1.4c0.3,0,0.5-0.1,0.8-0.2    l0.7-4.1c0-0.2,0.2-0.3,0.4-0.3c0.2,0,0.3,0.2,0.3,0.3l-0.4,4.2C99.2,68.6,99.6,68.9,100.2,69"/>
		<path class="st2" d="M69.6,103.4c0.5,0,1-0.3,1.3-0.8l-0.4-4.2c0-0.2,0.1-0.3,0.3-0.3c0.2,0,0.3,0.1,0.4,0.3l0.7,4.1    c0.2,0.1,0.5,0.2,0.8,0.2c0.8,0,1.5-0.6,1.6-1.4l-1.7-4c-0.1-0.2,0-0.3,0.2-0.4c0.2-0.1,0.3,0,0.4,0.1l1.9,3.6c0,0,0,0,0,0    c0.9,0,1.6-0.7,1.6-1.6c0-0.3,0-0.6-0.2-0.8l-3-3.6v-1.6c0-0.2-0.1-0.3-0.3-0.3h-1.5l-1.3-1.3c-0.1-0.1-0.3-0.2-0.5-0.2    c-0.2,0-0.4,0.1-0.5,0.2l-1.3,1.3h-1.5c-0.2,0-0.3,0.2-0.3,0.3v1.6l-3,3.6c-0.2,0.2-0.2,0.5-0.2,0.8c0,0.9,0.7,1.6,1.6,1.6    c0,0,0,0,0,0l1.9-3.6c0.1-0.1,0.3-0.2,0.4-0.1c0.2,0.1,0.2,0.3,0.2,0.4l-1.7,4c0.1,0.8,0.7,1.4,1.6,1.4c0.3,0,0.5-0.1,0.8-0.2    l0.7-4.1c0-0.2,0.2-0.3,0.4-0.3c0.2,0,0.3,0.2,0.3,0.3l-0.4,4.2C68.6,103,69.1,103.3,69.6,103.4"/>
		<path class="st3" d="M32.7,24c-0.3,0.1-0.9,0.2-1.2,0.1c-0.1,0-0.2,0-0.2,0l0,0l-0.6-3c-0.1-0.6-0.6-0.5-0.5,0.1l0.3,3.1    c-0.1,0.2-0.5,0.9-1,0.9s-0.9-0.8-1-0.9l0.3-3.1c0.1-0.6-0.4-0.7-0.5-0.1l-0.6,3l0,0c-0.1,0-0.1,0-0.2,0c-0.3,0-0.9,0-1.2-0.1    c0.4-1.6,1.3-5,1.5-6.1c0-0.2-0.1-0.5-0.4-0.5c0,0-0.1,0-0.2,0c-0.4,0.1-1.5,0.6-1.9,0.7l0.2-2.5c0.1-0.6-0.4-0.7-0.5-0.1    c-0.5,2.2-0.8,5.2-2.4,6.2c0.1-1.1,1.2-8.9,1.3-9.9c0-0.2,0-0.4,0.3-0.5c0.2-0.1,0.4,0,0.6,0.2c0,0,2.6,2.4,2.6,2.4    c0.1,0.1,0.3,0.2,0.4,0.1c0.1,0,0.3-0.2,0.3-0.3l0.4-3c0-0.1,0-0.2-0.1-0.3c-0.1-0.1-0.2-0.1-0.3-0.1h-0.4l0.1-0.9    c0.3-0.1,1.1-0.5,1.5-0.6c0,0,0,0,0,0c0,0,0.2,0,0.2,0c0.2,0,0.4,0.1,0.6,0.2c0.2,0.1,0.3,0.3,0.3,0.5l0.5,4.2    c0,0.2,0.1,0.3,0.3,0.3c0.2,0,0.3,0,0.4-0.1c0,0,2.6-2.4,2.6-2.4c0.2-0.2,0.4-0.3,0.6-0.2c0.3,0.1,0.3,0.3,0.3,0.5    c0.1,1,1.2,8.9,1.3,9.9c-1.6-1-1.9-4-2.4-6.2c-0.1-0.6-0.6-0.5-0.6,0.1l0.2,2.5c-0.4-0.1-1.5-0.6-1.9-0.7c-0.1,0-0.2,0-0.2,0    c-0.3,0-0.4,0.3-0.4,0.5C31.4,19,32.3,22.4,32.7,24"/>
		<path class="st3" d="M51.9,24c-0.3,0.1-0.9,0.2-1.2,0.1c-0.1,0-0.2,0-0.2,0l0,0l-0.6-3c-0.1-0.6-0.6-0.5-0.5,0.1l0.3,3.1    c-0.1,0.2-0.5,0.9-1,0.9c-0.4,0-0.9-0.8-1-0.9l0.3-3.1c0.1-0.6-0.4-0.7-0.5-0.1l-0.6,3l0,0c-0.1,0-0.1,0-0.2,0    c-0.3,0-0.9,0-1.2-0.1c0.4-1.6,1.3-5,1.5-6.1c0-0.2-0.1-0.5-0.4-0.5c0,0-0.1,0-0.2,0c-0.4,0.1-1.5,0.6-1.9,0.7l0.2-2.5    c0.1-0.6-0.4-0.7-0.5-0.1c-0.5,2.2-0.8,5.2-2.4,6.2c0.1-1.1,1.2-8.9,1.3-9.9c0-0.2,0-0.4,0.3-0.5c0.2-0.1,0.4,0,0.6,0.2    c0,0,2.6,2.4,2.6,2.4c0.1,0.1,0.3,0.2,0.4,0.1c0.1,0,0.3-0.2,0.3-0.3l0.4-3c0-0.1,0-0.2-0.1-0.3c-0.1-0.1-0.2-0.1-0.3-0.1h-0.4    L47,9.4c0.3-0.1,1.1-0.5,1.5-0.6c0,0,0,0,0,0c0,0,0.2,0,0.2,0c0.2,0,0.4,0.1,0.6,0.2c0.2,0.1,0.3,0.3,0.3,0.5l0.5,4.2    c0,0.2,0.1,0.3,0.3,0.3c0.2,0,0.3,0,0.4-0.1c0,0,2.6-2.4,2.6-2.4c0.2-0.2,0.4-0.3,0.6-0.2c0.3,0.1,0.3,0.3,0.3,0.5    c0.1,1,1.2,8.9,1.3,9.9c-1.6-1-1.9-4-2.4-6.2c-0.1-0.6-0.6-0.5-0.6,0.1l0.2,2.5c-0.4-0.1-1.5-0.6-1.9-0.7c-0.1,0-0.2,0-0.2,0    c-0.3,0-0.4,0.3-0.4,0.5C50.6,19,51.5,22.4,51.9,24"/>
		<path class="st3" d="M32.7,46.6c-0.3,0.1-0.9,0.2-1.2,0.1c-0.1,0-0.2,0-0.2,0l0,0l-0.6-3c-0.1-0.6-0.6-0.5-0.5,0.1l0.3,3.1    c-0.1,0.2-0.5,0.9-1,0.9s-0.9-0.8-1-0.9l0.3-3.1c0.1-0.6-0.4-0.7-0.5-0.1l-0.6,3l0,0c-0.1,0-0.1,0-0.2,0c-0.3,0-0.9,0-1.2-0.1    c0.4-1.6,1.3-5,1.5-6.1c0-0.2-0.1-0.5-0.4-0.5c0,0-0.1,0-0.2,0c-0.4,0.1-1.5,0.6-1.9,0.7l0.2-2.5c0.1-0.6-0.4-0.7-0.5-0.1    c-0.5,2.2-0.8,5.2-2.4,6.2c0.1-1.1,1.2-8.9,1.3-9.9c0-0.2,0-0.4,0.3-0.5c0.2-0.1,0.4,0,0.6,0.2c0,0,2.6,2.4,2.6,2.4    c0.1,0.1,0.3,0.2,0.4,0.1c0.1,0,0.3-0.2,0.3-0.3l0.4-3c0-0.1,0-0.2-0.1-0.3c-0.1-0.1-0.2-0.1-0.3-0.1h-0.4l0.1-0.9    c0.3-0.1,1.1-0.5,1.5-0.6c0,0,0,0,0,0c0,0,0.2,0,0.2,0c0.2,0,0.4,0.1,0.6,0.2c0.2,0.1,0.3,0.3,0.3,0.5l0.5,4.2    c0,0.2,0.1,0.3,0.3,0.3c0.2,0,0.3,0,0.4-0.1c0,0,2.6-2.4,2.6-2.4c0.2-0.2,0.4-0.3,0.6-0.2c0.3,0.1,0.3,0.3,0.3,0.5    c0.1,1,1.2,8.9,1.3,9.9c-1.6-1-1.9-4-2.4-6.2c-0.1-0.6-0.6-0.5-0.6,0.1l0.2,2.5c-0.4-0.1-1.5-0.5-1.9-0.7c-0.1,0-0.2,0-0.2,0    c-0.3,0-0.4,0.3-0.4,0.5C31.4,41.6,32.3,45,32.7,46.6"/>
		<path class="st3" d="M51.9,46.6c-0.3,0.1-0.9,0.2-1.2,0.1c-0.1,0-0.2,0-0.2,0l0,0l-0.6-3c-0.1-0.6-0.6-0.5-0.5,0.1l0.3,3.1    c-0.1,0.2-0.5,0.9-1,0.9c-0.4,0-0.9-0.8-1-0.9l0.3-3.1c0.1-0.6-0.4-0.7-0.5-0.1l-0.6,3l0,0c-0.1,0-0.1,0-0.2,0    c-0.3,0-0.9,0-1.2-0.1c0.4-1.6,1.3-5,1.5-6.1c0-0.2-0.1-0.5-0.4-0.5c0,0-0.1,0-0.2,0c-0.4,0.1-1.5,0.6-1.9,0.7l0.2-2.5    c0.1-0.6-0.4-0.7-0.5-0.1c-0.5,2.2-0.8,5.2-2.4,6.2c0.1-1.1,1.2-8.9,1.3-9.9c0-0.2,0-0.4,0.3-0.5c0.2-0.1,0.4,0,0.6,0.2    c0,0,2.6,2.4,2.6,2.4c0.1,0.1,0.3,0.2,0.4,0.1c0.1,0,0.3-0.2,0.3-0.3l0.4-3c0-0.1,0-0.2-0.1-0.3c-0.1-0.1-0.2-0.1-0.3-0.1h-0.4    L47,32c0.3-0.1,1.1-0.5,1.5-0.6c0,0,0,0,0,0c0,0,0.2,0,0.2,0c0.2,0,0.4,0.1,0.6,0.2c0.2,0.1,0.3,0.3,0.3,0.5l0.5,4.2    c0,0.2,0.1,0.3,0.3,0.3c0.2,0,0.3,0,0.4-0.1c0,0,2.6-2.4,2.6-2.4c0.2-0.2,0.4-0.3,0.6-0.2c0.3,0.1,0.3,0.3,0.3,0.5    c0.1,1,1.2,8.9,1.3,9.9c-1.6-1-1.9-4-2.4-6.2c-0.1-0.6-0.6-0.5-0.6,0.1l0.2,2.5c-0.4-0.1-1.5-0.5-1.9-0.7c-0.1,0-0.2,0-0.2,0    c-0.3,0-0.4,0.3-0.4,0.5C50.6,41.6,51.5,45,51.9,46.6"/>
		<path class="st3" d="M93.8,24c-0.3,0.1-0.9,0.2-1.2,0.1c-0.1,0-0.2,0-0.2,0l0,0l-0.6-3c-0.1-0.6-0.6-0.5-0.5,0.1l0.3,3.1    c-0.1,0.2-0.5,0.9-1,0.9c-0.4,0-0.9-0.8-1-0.9l0.3-3.1c0.1-0.6-0.4-0.7-0.5-0.1l-0.6,3l0,0c-0.1,0-0.1,0-0.2,0    c-0.3,0-0.9,0-1.2-0.1c0.4-1.6,1.3-5,1.5-6.1c0-0.2-0.1-0.5-0.4-0.5c0,0-0.1,0-0.2,0c-0.4,0.1-1.5,0.6-1.9,0.7l0.2-2.5    c0.1-0.6-0.4-0.7-0.5-0.1c-0.5,2.2-0.8,5.2-2.4,6.2c0.1-1.1,1.2-8.9,1.3-9.9c0-0.2,0-0.4,0.3-0.5c0.2-0.1,0.4,0,0.6,0.2    c0,0,2.6,2.4,2.6,2.4c0.1,0.1,0.3,0.2,0.4,0.1c0.2,0,0.3-0.2,0.3-0.3l0.4-3c0-0.1,0-0.2-0.1-0.3c-0.1-0.1-0.2-0.1-0.3-0.1h-0.4    l0.1-0.9c0.3-0.1,1.1-0.5,1.5-0.6c0,0,0,0,0,0c0,0,0.2,0,0.2,0c0.2,0,0.4,0.1,0.6,0.2c0.2,0.1,0.3,0.3,0.3,0.5l0.5,4.2    c0,0.2,0.1,0.3,0.3,0.3c0.2,0,0.3,0,0.4-0.1c0,0,2.6-2.4,2.6-2.4c0.2-0.2,0.4-0.3,0.6-0.2c0.3,0.1,0.3,0.3,0.3,0.5    c0.1,1,1.2,8.9,1.3,9.9c-1.6-1-1.9-4-2.4-6.2c-0.1-0.6-0.6-0.5-0.6,0.1l0.2,2.5c-0.4-0.1-1.5-0.6-1.9-0.7c-0.1,0-0.2,0-0.2,0    c-0.3,0-0.4,0.3-0.4,0.5C92.6,19,93.5,22.4,93.8,24"/>
		<path class="st3" d="M113.1,24c-0.3,0.1-0.9,0.2-1.2,0.1c-0.1,0-0.2,0-0.2,0l0,0l-0.6-3c-0.1-0.6-0.6-0.5-0.5,0.1l0.3,3.1    c-0.1,0.2-0.5,0.9-1,0.9s-0.9-0.8-1-0.9l0.3-3.1c0.1-0.6-0.4-0.7-0.5-0.1l-0.6,3l0,0c-0.1,0-0.1,0-0.2,0c-0.3,0-0.9,0-1.2-0.1    c0.4-1.6,1.3-5,1.5-6.1c0-0.2-0.1-0.5-0.4-0.5c0,0-0.1,0-0.2,0c-0.4,0.1-1.5,0.6-1.9,0.7l0.2-2.5c0.1-0.6-0.4-0.7-0.5-0.1    c-0.5,2.2-0.8,5.2-2.4,6.2c0.1-1.1,1.2-8.9,1.3-9.9c0-0.2,0-0.4,0.3-0.5c0.2-0.1,0.4,0,0.6,0.2c0,0,2.6,2.4,2.6,2.4    c0.1,0.1,0.3,0.2,0.4,0.1c0.2,0,0.3-0.2,0.3-0.3l0.4-3c0-0.1,0-0.2-0.1-0.3c-0.1-0.1-0.2-0.1-0.3-0.1H108l0.1-0.9    c0.3-0.1,1.1-0.5,1.5-0.6c0,0,0,0,0,0c0,0,0.2,0,0.2,0c0.2,0,0.4,0.1,0.6,0.2c0.2,0.1,0.3,0.3,0.3,0.5l0.5,4.2    c0,0.2,0.1,0.3,0.3,0.3c0.2,0,0.3,0,0.4-0.1c0,0,2.6-2.4,2.6-2.4c0.2-0.2,0.4-0.3,0.6-0.2c0.3,0.1,0.3,0.3,0.3,0.5    c0.1,1,1.2,8.9,1.3,9.9c-1.6-1-1.9-4-2.4-6.2c-0.1-0.6-0.6-0.5-0.5,0.1l0.2,2.5c-0.4-0.1-1.5-0.6-1.9-0.7c-0.1,0-0.2,0-0.2,0    c-0.3,0-0.4,0.3-0.4,0.5C111.8,19,112.7,22.4,113.1,24"/>
		<path class="st3" d="M93.8,46.6c-0.3,0.1-0.9,0.2-1.2,0.1c-0.1,0-0.2,0-0.2,0l0,0l-0.6-3c-0.1-0.6-0.6-0.5-0.5,0.1l0.3,3.1    c-0.1,0.2-0.5,0.9-1,0.9c-0.4,0-0.9-0.8-1-0.9l0.3-3.1c0.1-0.6-0.4-0.7-0.5-0.1l-0.6,3l0,0c-0.1,0-0.1,0-0.2,0    c-0.3,0-0.9,0-1.2-0.1c0.4-1.6,1.3-5,1.5-6.1c0-0.2-0.1-0.5-0.4-0.5c0,0-0.1,0-0.2,0c-0.4,0.1-1.5,0.6-1.9,0.7l0.2-2.5    c0.1-0.6-0.4-0.7-0.5-0.1c-0.5,2.2-0.8,5.2-2.4,6.2c0.1-1.1,1.2-8.9,1.3-9.9c0-0.2,0-0.4,0.3-0.5c0.2-0.1,0.4,0,0.6,0.2    c0,0,2.6,2.4,2.6,2.4c0.1,0.1,0.3,0.2,0.4,0.1c0.2,0,0.3-0.2,0.3-0.3l0.4-3c0-0.1,0-0.2-0.1-0.3c-0.1-0.1-0.2-0.1-0.3-0.1h-0.4    l0.1-0.9c0.3-0.1,1.1-0.5,1.5-0.6c0,0,0,0,0,0c0,0,0.2,0,0.2,0c0.2,0,0.4,0.1,0.6,0.2c0.2,0.1,0.3,0.3,0.3,0.5l0.5,4.2    c0,0.2,0.1,0.3,0.3,0.3c0.2,0,0.3,0,0.4-0.1c0,0,2.6-2.4,2.6-2.4c0.2-0.2,0.4-0.3,0.6-0.2c0.3,0.1,0.3,0.3,0.3,0.5    c0.1,1,1.2,8.9,1.3,9.9c-1.6-1-1.9-4-2.4-6.2c-0.1-0.6-0.6-0.5-0.6,0.1l0.2,2.5c-0.4-0.1-1.5-0.5-1.9-0.7c-0.1,0-0.2,0-0.2,0    c-0.3,0-0.4,0.3-0.4,0.5C92.6,41.6,93.5,45,93.8,46.6"/>
		<path class="st3" d="M113.1,46.6c-0.3,0.1-0.9,0.2-1.2,0.1c-0.1,0-0.2,0-0.2,0l0,0l-0.6-3c-0.1-0.6-0.6-0.5-0.5,0.1l0.3,3.1    c-0.1,0.2-0.5,0.9-1,0.9s-0.9-0.8-1-0.9l0.3-3.1c0.1-0.6-0.4-0.7-0.5-0.1l-0.6,3l0,0c-0.1,0-0.1,0-0.2,0c-0.3,0-0.9,0-1.2-0.1    c0.4-1.6,1.3-5,1.5-6.1c0-0.2-0.1-0.5-0.4-0.5c0,0-0.1,0-0.2,0c-0.4,0.1-1.5,0.6-1.9,0.7l0.2-2.5c0.1-0.6-0.4-0.7-0.5-0.1    c-0.5,2.2-0.8,5.2-2.4,6.2c0.1-1.1,1.2-8.9,1.3-9.9c0-0.2,0-0.4,0.3-0.5c0.2-0.1,0.4,0,0.6,0.2c0,0,2.6,2.4,2.6,2.4    c0.1,0.1,0.3,0.2,0.4,0.1c0.2,0,0.3-0.2,0.3-0.3l0.4-3c0-0.1,0-0.2-0.1-0.3c-0.1-0.1-0.2-0.1-0.3-0.1H108l0.1-0.9    c0.3-0.1,1.1-0.5,1.5-0.6c0,0,0,0,0,0c0,0,0.2,0,0.2,0c0.2,0,0.4,0.1,0.6,0.2c0.2,0.1,0.3,0.3,0.3,0.5l0.5,4.2    c0,0.2,0.1,0.3,0.3,0.3c0.2,0,0.3,0,0.4-0.1c0,0,2.6-2.4,2.6-2.4c0.2-0.2,0.4-0.3,0.6-0.2c0.3,0.1,0.3,0.3,0.3,0.5    c0.1,1,1.2,8.9,1.3,9.9c-1.6-1-1.9-4-2.4-6.2c-0.1-0.6-0.6-0.5-0.5,0.1l0.2,2.5c-0.4-0.1-1.5-0.5-1.9-0.7c-0.1,0-0.2,0-0.2,0    c-0.3,0-0.4,0.3-0.4,0.5C111.8,41.6,112.7,45,113.1,46.6"/>
		<path class="st3" d="M32.7,92.7c-0.3,0.1-0.9,0.2-1.2,0.1c-0.1,0-0.2,0-0.2,0l0,0l-0.6-3c-0.1-0.6-0.6-0.5-0.5,0.1l0.3,3.1    c-0.1,0.2-0.5,0.9-1,0.9s-0.9-0.8-1-0.9l0.3-3.1c0.1-0.6-0.4-0.7-0.5-0.1l-0.6,3l0,0c-0.1,0-0.1,0-0.2,0c-0.3,0-0.9,0-1.2-0.1    c0.4-1.6,1.3-5,1.5-6.1c0-0.2-0.1-0.5-0.4-0.5c0,0-0.1,0-0.2,0c-0.4,0.1-1.5,0.6-1.9,0.7l0.2-2.5c0.1-0.6-0.4-0.7-0.5-0.1    c-0.5,2.2-0.8,5.2-2.4,6.2c0.1-1,1.2-8.9,1.3-9.9c0-0.2,0-0.4,0.3-0.5c0.2-0.1,0.4,0,0.6,0.2c0,0,2.6,2.4,2.6,2.4    c0.1,0.1,0.3,0.2,0.4,0.1c0.1,0,0.3-0.2,0.3-0.3l0.4-3c0-0.1,0-0.2-0.1-0.3c-0.1-0.1-0.2-0.1-0.3-0.1h-0.4l0.1-0.9    c0.3-0.1,1.1-0.5,1.5-0.6c0,0,0,0,0,0c0,0,0.2,0,0.2,0c0.2,0,0.4,0.1,0.6,0.2c0.2,0.1,0.3,0.3,0.3,0.5l0.5,4.2    c0,0.2,0.1,0.3,0.3,0.3c0.2,0,0.3,0,0.4-0.1c0,0,2.6-2.4,2.6-2.4c0.2-0.2,0.4-0.3,0.6-0.2c0.3,0.1,0.3,0.3,0.3,0.5    c0.1,1,1.2,8.9,1.3,9.9c-1.6-1-1.9-4-2.4-6.2c-0.1-0.6-0.6-0.5-0.6,0.1l0.2,2.5c-0.4-0.1-1.5-0.5-1.9-0.7c-0.1,0-0.2,0-0.2,0    c-0.3,0-0.4,0.3-0.4,0.5C31.4,87.8,32.3,91.2,32.7,92.7"/>
		<path class="st3" d="M51.9,92.7c-0.3,0.1-0.9,0.2-1.2,0.1c-0.1,0-0.2,0-0.2,0l0,0l-0.6-3c-0.1-0.6-0.6-0.5-0.5,0.1l0.3,3.1    c-0.1,0.2-0.5,0.9-1,0.9c-0.4,0-0.9-0.8-1-0.9l0.3-3.1c0.1-0.6-0.4-0.7-0.5-0.1l-0.6,3l0,0c-0.1,0-0.1,0-0.2,0    c-0.3,0-0.9,0-1.2-0.1c0.4-1.6,1.3-5,1.5-6.1c0-0.2-0.1-0.5-0.4-0.5c0,0-0.1,0-0.2,0c-0.4,0.1-1.5,0.6-1.9,0.7l0.2-2.5    c0.1-0.6-0.4-0.7-0.5-0.1c-0.5,2.2-0.8,5.2-2.4,6.2c0.1-1,1.2-8.9,1.3-9.9c0-0.2,0-0.4,0.3-0.5c0.2-0.1,0.4,0,0.6,0.2    c0,0,2.6,2.4,2.6,2.4c0.1,0.1,0.3,0.2,0.4,0.1c0.1,0,0.3-0.2,0.3-0.3l0.4-3c0-0.1,0-0.2-0.1-0.3c-0.1-0.1-0.2-0.1-0.3-0.1h-0.4    l0.1-0.9c0.3-0.1,1.1-0.5,1.5-0.6c0,0,0,0,0,0c0,0,0.2,0,0.2,0c0.2,0,0.4,0.1,0.6,0.2c0.2,0.1,0.3,0.3,0.3,0.5l0.5,4.2    c0,0.2,0.1,0.3,0.3,0.3c0.2,0,0.3,0,0.4-0.1c0,0,2.6-2.4,2.6-2.4c0.2-0.2,0.4-0.3,0.6-0.2c0.3,0.1,0.3,0.3,0.3,0.5    c0.1,1,1.2,8.9,1.3,9.9c-1.6-1-1.9-4-2.4-6.2c-0.1-0.6-0.6-0.5-0.6,0.1l0.2,2.5c-0.4-0.1-1.5-0.5-1.9-0.7c-0.1,0-0.2,0-0.2,0    c-0.3,0-0.4,0.3-0.4,0.5C50.6,87.8,51.5,91.2,51.9,92.7"/>
		<path class="st3" d="M32.7,115.4c-0.3,0.1-0.9,0.2-1.2,0.1c-0.1,0-0.2,0-0.2,0l0,0l-0.6-3c-0.1-0.6-0.6-0.5-0.5,0.1l0.3,3.1    c-0.1,0.2-0.5,0.9-1,0.9s-0.9-0.8-1-0.9l0.3-3.1c0.1-0.6-0.4-0.7-0.5-0.1l-0.6,3l0,0c-0.1,0-0.1,0-0.2,0c-0.3,0-0.9,0-1.2-0.1    c0.4-1.6,1.3-5,1.5-6.1c0-0.2-0.1-0.5-0.4-0.5c0,0-0.1,0-0.2,0c-0.4,0.1-1.5,0.6-1.9,0.7l0.2-2.5c0.1-0.6-0.4-0.7-0.5-0.1    c-0.5,2.2-0.8,5.2-2.4,6.2c0.1-1,1.2-8.9,1.3-9.9c0-0.2,0-0.4,0.3-0.5c0.2-0.1,0.4,0,0.6,0.2c0,0,2.6,2.4,2.6,2.4    c0.1,0.1,0.3,0.2,0.4,0.1c0.1,0,0.3-0.2,0.3-0.3l0.4-3c0-0.1,0-0.2-0.1-0.3c-0.1-0.1-0.2-0.1-0.3-0.1h-0.4l0.1-0.9    c0.3-0.1,1.1-0.5,1.5-0.6c0,0,0,0,0,0c0,0,0.2,0,0.2,0c0.2,0,0.4,0.1,0.6,0.2c0.2,0.1,0.3,0.3,0.3,0.5l0.5,4.2    c0,0.2,0.1,0.3,0.3,0.3c0.2,0,0.3,0,0.4-0.1c0,0,2.6-2.4,2.6-2.4c0.2-0.2,0.4-0.3,0.6-0.2c0.3,0.1,0.3,0.3,0.3,0.5    c0.1,1,1.2,8.9,1.3,9.9c-1.6-1-1.9-4-2.4-6.2c-0.1-0.6-0.6-0.5-0.6,0.1l0.2,2.5c-0.4-0.1-1.5-0.5-1.9-0.7c-0.1,0-0.2,0-0.2,0    c-0.3,0-0.4,0.3-0.4,0.5C31.4,110.4,32.3,113.8,32.7,115.4"/>
		<path class="st3" d="M51.9,115.4c-0.3,0.1-0.9,0.2-1.2,0.1c-0.1,0-0.2,0-0.2,0l0,0l-0.6-3c-0.1-0.6-0.6-0.5-0.5,0.1l0.3,3.1    c-0.1,0.2-0.5,0.9-1,0.9c-0.4,0-0.9-0.8-1-0.9l0.3-3.1c0.1-0.6-0.4-0.7-0.5-0.1l-0.6,3l0,0c-0.1,0-0.1,0-0.2,0    c-0.3,0-0.9,0-1.2-0.1c0.4-1.6,1.3-5,1.5-6.1c0-0.2-0.1-0.5-0.4-0.5c0,0-0.1,0-0.2,0c-0.4,0.1-1.5,0.6-1.9,0.7l0.2-2.5    c0.1-0.6-0.4-0.7-0.5-0.1c-0.5,2.2-0.8,5.2-2.4,6.2c0.1-1,1.2-8.9,1.3-9.9c0-0.2,0-0.4,0.3-0.5c0.2-0.1,0.4,0,0.6,0.2    c0,0,2.6,2.4,2.6,2.4c0.1,0.1,0.3,0.2,0.4,0.1c0.1,0,0.3-0.2,0.3-0.3l0.4-3c0-0.1,0-0.2-0.1-0.3c-0.1-0.1-0.2-0.1-0.3-0.1h-0.4    l0.1-0.9c0.3-0.1,1.1-0.5,1.5-0.6c0,0,0,0,0,0c0,0,0.2,0,0.2,0c0.2,0,0.4,0.1,0.6,0.2c0.2,0.1,0.3,0.3,0.3,0.5l0.5,4.2    c0,0.2,0.1,0.3,0.3,0.3c0.2,0,0.3,0,0.4-0.1c0,0,2.6-2.4,2.6-2.4c0.2-0.2,0.4-0.3,0.6-0.2c0.3,0.1,0.3,0.3,0.3,0.5    c0.1,1,1.2,8.9,1.3,9.9c-1.6-1-1.9-4-2.4-6.2c-0.1-0.6-0.6-0.5-0.6,0.1l0.2,2.5c-0.4-0.1-1.5-0.5-1.9-0.7c-0.1,0-0.2,0-0.2,0    c-0.3,0-0.4,0.3-0.4,0.5C50.6,110.4,51.5,113.8,51.9,115.4"/>
		<path class="st3" d="M93.8,92.7c-0.3,0.1-0.9,0.2-1.2,0.1c-0.1,0-0.2,0-0.2,0l0,0l-0.6-3c-0.1-0.6-0.6-0.5-0.5,0.1l0.3,3.1    c-0.1,0.2-0.5,0.9-1,0.9c-0.4,0-0.9-0.8-1-0.9l0.3-3.1c0.1-0.6-0.4-0.7-0.5-0.1l-0.6,3l0,0c-0.1,0-0.1,0-0.2,0    c-0.3,0-0.9,0-1.2-0.1c0.4-1.6,1.3-5,1.5-6.1c0-0.2-0.1-0.5-0.4-0.5c0,0-0.1,0-0.2,0c-0.4,0.1-1.5,0.6-1.9,0.7l0.2-2.5    c0.1-0.6-0.4-0.7-0.5-0.1c-0.5,2.2-0.8,5.2-2.4,6.2c0.1-1,1.2-8.9,1.3-9.9c0-0.2,0-0.4,0.3-0.5c0.2-0.1,0.4,0,0.6,0.2    c0,0,2.6,2.4,2.6,2.4c0.1,0.1,0.3,0.2,0.4,0.1c0.2,0,0.3-0.2,0.3-0.3l0.4-3c0-0.1,0-0.2-0.1-0.3c-0.1-0.1-0.2-0.1-0.3-0.1h-0.4    l0.1-0.9c0.3-0.1,1.1-0.5,1.5-0.6c0,0,0,0,0,0c0,0,0.2,0,0.2,0c0.2,0,0.4,0.1,0.6,0.2c0.2,0.1,0.3,0.3,0.3,0.5l0.5,4.2    c0,0.2,0.1,0.3,0.3,0.3c0.2,0,0.3,0,0.4-0.1c0,0,2.6-2.4,2.6-2.4c0.2-0.2,0.4-0.3,0.6-0.2c0.3,0.1,0.3,0.3,0.3,0.5    c0.1,1,1.2,8.9,1.3,9.9c-1.6-1-1.9-4-2.4-6.2c-0.1-0.6-0.6-0.5-0.6,0.1l0.2,2.5c-0.4-0.1-1.5-0.5-1.9-0.7c-0.1,0-0.2,0-0.2,0    c-0.3,0-0.4,0.3-0.4,0.5C92.6,87.8,93.5,91.2,93.8,92.7"/>
		<path class="st3" d="M113.1,92.7c-0.3,0.1-0.9,0.2-1.2,0.1c-0.1,0-0.2,0-0.2,0l0,0l-0.6-3c-0.1-0.6-0.6-0.5-0.5,0.1l0.3,3.1    c-0.1,0.2-0.5,0.9-1,0.9s-0.9-0.8-1-0.9l0.3-3.1c0.1-0.6-0.4-0.7-0.5-0.1l-0.6,3l0,0c-0.1,0-0.1,0-0.2,0c-0.3,0-0.9,0-1.2-0.1    c0.4-1.6,1.3-5,1.5-6.1c0-0.2-0.1-0.5-0.4-0.5c0,0-0.1,0-0.2,0c-0.4,0.1-1.5,0.6-1.9,0.7l0.2-2.5c0.1-0.6-0.4-0.7-0.5-0.1    c-0.5,2.2-0.8,5.2-2.4,6.2c0.1-1,1.2-8.9,1.3-9.9c0-0.2,0-0.4,0.3-0.5c0.2-0.1,0.4,0,0.6,0.2c0,0,2.6,2.4,2.6,2.4    c0.1,0.1,0.3,0.2,0.4,0.1c0.2,0,0.3-0.2,0.3-0.3l0.4-3c0-0.1,0-0.2-0.1-0.3c-0.1-0.1-0.2-0.1-0.3-0.1H108l0.1-0.9    c0.3-0.1,1.1-0.5,1.5-0.6c0,0,0,0,0,0c0,0,0.2,0,0.2,0c0.2,0,0.4,0.1,0.6,0.2c0.2,0.1,0.3,0.3,0.3,0.5l0.5,4.2    c0,0.2,0.1,0.3,0.3,0.3c0.2,0,0.3,0,0.4-0.1c0,0,2.6-2.4,2.6-2.4c0.2-0.2,0.4-0.3,0.6-0.2c0.3,0.1,0.3,0.3,0.3,0.5    c0.1,1,1.2,8.9,1.3,9.9c-1.6-1-1.9-4-2.4-6.2c-0.1-0.6-0.6-0.5-0.5,0.1l0.2,2.5c-0.4-0.1-1.5-0.5-1.9-0.7c-0.1,0-0.2,0-0.2,0    c-0.3,0-0.4,0.3-0.4,0.5C111.8,87.8,112.7,91.2,113.1,92.7"/>
		<path class="st3" d="M93.8,115.4c-0.3,0.1-0.9,0.2-1.2,0.1c-0.1,0-0.2,0-0.2,0l0,0l-0.6-3c-0.1-0.6-0.6-0.5-0.5,0.1l0.3,3.1    c-0.1,0.2-0.5,0.9-1,0.9c-0.4,0-0.9-0.8-1-0.9l0.3-3.1c0.1-0.6-0.4-0.7-0.5-0.1l-0.6,3l0,0c-0.1,0-0.1,0-0.2,0    c-0.3,0-0.9,0-1.2-0.1c0.4-1.6,1.3-5,1.5-6.1c0-0.2-0.1-0.5-0.4-0.5c0,0-0.1,0-0.2,0c-0.4,0.1-1.5,0.6-1.9,0.7l0.2-2.5    c0.1-0.6-0.4-0.7-0.5-0.1c-0.5,2.2-0.8,5.2-2.4,6.2c0.1-1,1.2-8.9,1.3-9.9c0-0.2,0-0.4,0.3-0.5c0.2-0.1,0.4,0,0.6,0.2    c0,0,2.6,2.4,2.6,2.4c0.1,0.1,0.3,0.2,0.4,0.1c0.2,0,0.3-0.2,0.3-0.3l0.4-3c0-0.1,0-0.2-0.1-0.3c-0.1-0.1-0.2-0.1-0.3-0.1h-0.4    l0.1-0.9c0.3-0.1,1.1-0.5,1.5-0.6c0,0,0,0,0,0c0,0,0.2,0,0.2,0c0.2,0,0.4,0.1,0.6,0.2c0.2,0.1,0.3,0.3,0.3,0.5l0.5,4.2    c0,0.2,0.1,0.3,0.3,0.3c0.2,0,0.3,0,0.4-0.1c0,0,2.6-2.4,2.6-2.4c0.2-0.2,0.4-0.3,0.6-0.2c0.3,0.1,0.3,0.3,0.3,0.5    c0.1,1,1.2,8.9,1.3,9.9c-1.6-1-1.9-4-2.4-6.2c-0.1-0.6-0.6-0.5-0.6,0.1l0.2,2.5c-0.4-0.1-1.5-0.5-1.9-0.7c-0.1,0-0.2,0-0.2,0    c-0.3,0-0.4,0.3-0.4,0.5C92.6,110.4,93.5,113.8,93.8,115.4"/>
		<path class="st3" d="M113.1,115.4c-0.3,0.1-0.9,0.2-1.2,0.1c-0.1,0-0.2,0-0.2,0l0,0l-0.6-3c-0.1-0.6-0.6-0.5-0.5,0.1l0.3,3.1    c-0.1,0.2-0.5,0.9-1,0.9s-0.9-0.8-1-0.9l0.3-3.1c0.1-0.6-0.4-0.7-0.5-0.1l-0.6,3l0,0c-0.1,0-0.1,0-0.2,0c-0.3,0-0.9,0-1.2-0.1    c0.4-1.6,1.3-5,1.5-6.1c0-0.2-0.1-0.5-0.4-0.5c0,0-0.1,0-0.2,0c-0.4,0.1-1.5,0.6-1.9,0.7l0.2-2.5c0.1-0.6-0.4-0.7-0.5-0.1    c-0.5,2.2-0.8,5.2-2.4,6.2c0.1-1,1.2-8.9,1.3-9.9c0-0.2,0-0.4,0.3-0.5c0.2-0.1,0.4,0,0.6,0.2c0,0,2.6,2.4,2.6,2.4    c0.1,0.1,0.3,0.2,0.4,0.1c0.2,0,0.3-0.2,0.3-0.3l0.4-3c0-0.1,0-0.2-0.1-0.3c-0.1-0.1-0.2-0.1-0.3-0.1H108l0.1-0.9    c0.3-0.1,1.1-0.5,1.5-0.6c0,0,0,0,0,0c0,0,0.2,0,0.2,0c0.2,0,0.4,0.1,0.6,0.2c0.2,0.1,0.3,0.3,0.3,0.5l0.5,4.2    c0,0.2,0.1,0.3,0.3,0.3c0.2,0,0.3,0,0.4-0.1c0,0,2.6-2.4,2.6-2.4c0.2-0.2,0.4-0.3,0.6-0.2c0.3,0.1,0.3,0.3,0.3,0.5    c0.1,1,1.2,8.9,1.3,9.9c-1.6-1-1.9-4-2.4-6.2c-0.1-0.6-0.6-0.5-0.5,0.1l0.2,2.5c-0.4-0.1-1.5-0.5-1.9-0.7c-0.1,0-0.2,0-0.2,0    c-0.3,0-0.4,0.3-0.4,0.5C111.8,110.4,112.7,113.8,113.1,115.4"/>
	</g>
</g>
</svg>