<?xml version="1.0" encoding="UTF-8" standalone="no"?>
<!DOCTYPE svg PUBLIC "-//W3C//DTD SVG 1.1//EN" "http://www.w3.org/Graphics/SVG/1.1/DTD/svg11.dtd">
<svg height="100" width="238" stroke-miterlimit="10" style="fill-rule:nonzero;clip-rule:evenodd;stroke-linecap:round;stroke-linejoin:round;" version="1.1" viewBox="6.92364 1.71459 296.707 124.471" xml:space="preserve" xmlns="http://www.w3.org/2000/svg" xmlns:vectornator="http://vectornator.io" xmlns:xlink="http://www.w3.org/1999/xlink">
<defs>
<path d="M137.401 19.162L140.321 19.162L140.321 33.7617C140.321 37.5293 137.589 41.3912 131.561 41.3912C126.098 41.3912 122.801 38.5654 122.801 33.95L122.801 19.162L126.098 19.162L126.098 33.4791C126.098 37.2467 127.887 38.9422 131.843 38.9422C135.705 38.9422 137.401 36.2106 137.401 33.4791L137.401 19.162Z" id="Fill"/>
<path d="M149.646 19.162L146.82 19.162L146.82 40.9202L149.646 40.9202L149.646 24.3425L162.644 41.0144L165.658 41.0144L165.658 19.162L162.832 19.162L162.832 36.0222L149.646 19.162Z" id="Fill_2"/>
<path d="M176.019 19.162L176.019 40.9202L172.723 40.9202L172.723 19.162L176.019 19.162Z" id="Fill_3"/>
<path d="M180.635 19.162L183.931 19.162L189.3 35.4571L195.234 19.162L198.06 19.162L189.771 40.9202L188.076 40.9202L180.635 19.162Z" id="Fill_4"/>
<path d="M215.391 19.162L215.391 21.4226L205.784 21.4226L205.784 28.4869L213.507 28.4869L213.507 30.7475L205.784 30.7475L205.784 38.5654L215.485 38.5654L215.485 40.9202L202.487 40.9202L202.487 19.162L215.391 19.162Z" id="Fill_5"/>
<path d="M229.897 30.7475L230.273 30.6533C231.969 30.1824 234.418 27.6392 234.418 24.7193C234.418 22.0819 231.969 19.2562 226.694 19.2562L220.76 19.2562L220.76 41.0144L224.057 41.0144L224.057 21.2342L226.412 21.2342C229.897 21.2342 231.215 23.2122 231.215 25.0019C231.215 26.7915 229.708 29.4288 226.412 29.4288C226.412 29.4288 225.846 29.4288 225.564 29.4288L232.911 41.0144L236.773 41.0144L229.897 30.7475Z" id="Fill_6"/>
<path d="M249.959 35.8339C249.959 33.7617 247.981 32.6314 245.815 31.2185L245.062 30.7475C242.613 29.2405 239.881 27.3566 239.881 24.2483C239.881 21.0458 242.707 18.691 246.38 18.691C249.583 18.691 251.372 19.4446 252.126 19.8213C252.032 20.0097 251.278 21.7993 251.184 21.9877C250.43 21.611 248.923 21.0458 246.851 21.0458C244.496 21.0458 242.989 22.0819 242.989 23.7774C242.989 25.7554 244.685 26.7915 246.757 28.1102L247.699 28.6753L247.793 28.7695C249.959 30.1824 253.256 32.2546 253.256 35.1745C253.256 38.848 249.3 41.3912 245.627 41.3912C242.047 41.3912 240.069 40.3551 239.127 39.9783C239.222 39.7899 239.975 38.0945 240.069 37.9061L240.069 37.9061C241.011 38.377 242.801 39.1306 245.627 39.1306C248.17 39.0364 249.959 37.6235 249.959 35.8339Z" id="Fill_7"/>
<path d="M262.299 19.162L262.299 40.9202L259.002 40.9202L259.002 19.162L262.299 19.162Z" id="Fill_8"/>
<path d="M284.151 19.162L284.151 21.4226L277.087 21.4226L277.087 40.9202L273.79 40.9202L273.79 21.5168L266.631 21.5168L266.631 19.2562L284.151 19.162L284.151 19.162Z" id="Fill_9"/>
<path d="M291.686 21.5168L291.686 28.5811L299.41 28.5811L299.41 30.8417L291.686 30.8417L291.686 38.6596C291.686 38.6596 301.105 38.6596 301.388 38.6596L301.388 41.0144L288.39 41.0144L288.39 19.162L301.388 19.162L301.388 21.4226L291.686 21.5168L291.686 21.5168Z" id="Fill_10"/>
<path d="M298.185 11.9092L299.504 13.7931L293.947 16.8072L293.193 15.5827L298.185 11.9092Z" id="Fill_11"/>
<path d="M219.63 49.5858L219.63 49.7742C224.245 51.5638 221.702 57.4979 219.724 62.5842L209.551 88.3927L194.669 49.5858L184.685 49.5858L184.685 49.7742C187.605 52.0348 189.112 56.3676 190.525 60.0411L204.748 96.7757L211.906 96.7757L230.839 49.4916L219.63 49.5858L219.63 49.5858Z" id="Fill_12"/>
<path d="M301.388 89.8055C298.656 91.03 295.642 91.6894 292.251 91.6894L282.079 91.6894L282.079 49.5858L271.058 49.5858L271.058 49.7742C274.543 50.9987 274.449 56.3676 274.449 59.6643L274.449 96.5873C270.776 94.7977 268.892 90.4649 267.102 86.4147L251.467 49.5858L239.598 49.5858L239.598 49.7742C243.178 50.8103 241.765 53.8244 240.729 56.4618L228.201 86.4147C226.506 90.4649 224.716 94.7035 220.949 96.5873L220.949 96.7757L230.368 96.7757L235.171 84.2482L258.248 84.2482L263.24 96.7757L301.576 96.7757L301.388 89.8055L301.388 89.8055ZM237.149 79.0677L246.474 55.7083L255.988 79.0677L237.149 79.0677Z" id="Fill_13"/>
<path d="M188.735 86.4147L173.099 49.5858L161.231 49.5858L161.231 49.7742C164.81 50.8103 163.398 53.8244 162.361 56.4618L162.361 56.4618L162.361 56.4618L149.834 86.4147C149.175 87.9217 148.61 89.4288 147.856 90.8416C146.066 91.4068 144.088 91.6894 142.11 91.6894L131.938 91.6894L131.938 49.5858L120.917 49.5858L120.917 49.7742C124.402 50.9045 124.308 56.3676 124.308 59.6643L124.308 96.7757L152.095 96.7757L156.898 84.2482L179.881 84.2482L179.881 84.2482L184.873 96.7757L196.176 96.7757L196.176 96.5873C192.22 94.7035 190.525 90.5591 188.735 86.4147ZM158.782 79.0677L168.107 55.7083L177.715 79.0677L158.782 79.0677Z" id="Fill_14"/>
<path d="M8.92364 3.71459L8.92364 97.906C8.92364 106.006 15.1403 112.317 23.1465 112.317L45.5641 112.317C48.5782 112.317 52.4401 114.295 54.4181 120.041L55.5484 123.149C55.831 123.809 56.2077 124.185 56.5845 124.185C57.0555 124.185 57.4322 123.809 57.6206 123.149L58.7509 120.041C60.7289 114.39 64.5908 112.317 67.6049 112.317L90.0224 112.317C98.0287 112.317 104.245 106.006 104.245 97.906L104.245 3.71459L8.92364 3.71459Z" id="Fill_15"/>
</defs>
<clipPath id="ArtboardFrame">
<rect height="124.471" width="296.707" x="6.92364" y="1.71459"/>
</clipPath>
<g clip-path="url(#ArtboardFrame)" id="Layer" vectornator:layerName="Layer">
<g opacity="1" vectornator:layerName="g">
<g opacity="1" vectornator:layerName="g">
<g opacity="1" vectornator:layerName="path">
<use fill="#000000" fill-rule="nonzero" stroke="none" xlink:href="#Fill"/>
<mask height="26.2292" id="StrokeMask" maskUnits="userSpaceOnUse" width="21.5196" x="120.801" y="17.162">
<rect fill="#ffffff" height="26.2292" stroke="none" width="21.5196" x="120.801" y="17.162"/>
<use fill="#000000" fill-rule="evenodd" stroke="none" xlink:href="#Fill"/>
</mask>
<use fill="none" mask="url(#StrokeMask)" stroke="#ffffff" stroke-linecap="round" stroke-linejoin="miter" stroke-width="4" xlink:href="#Fill"/>
</g>
<g opacity="1" vectornator:layerName="path">
<use fill="#000000" fill-rule="nonzero" stroke="none" xlink:href="#Fill_2"/>
<mask height="25.8524" id="StrokeMask_2" maskUnits="userSpaceOnUse" width="22.8383" x="144.82" y="17.162">
<rect fill="#ffffff" height="25.8524" stroke="none" width="22.8383" x="144.82" y="17.162"/>
<use fill="#000000" fill-rule="evenodd" stroke="none" xlink:href="#Fill_2"/>
</mask>
<use fill="none" mask="url(#StrokeMask_2)" stroke="#ffffff" stroke-linecap="round" stroke-linejoin="miter" stroke-width="4" xlink:href="#Fill_2"/>
</g>
<g opacity="1" vectornator:layerName="path">
<use fill="#000000" fill-rule="nonzero" stroke="none" xlink:href="#Fill_3"/>
<mask height="25.7582" id="StrokeMask_3" maskUnits="userSpaceOnUse" width="7.2967" x="170.723" y="17.162">
<rect fill="#ffffff" height="25.7582" stroke="none" width="7.2967" x="170.723" y="17.162"/>
<use fill="#000000" fill-rule="evenodd" stroke="none" xlink:href="#Fill_3"/>
</mask>
<use fill="none" mask="url(#StrokeMask_3)" stroke="#ffffff" stroke-linecap="round" stroke-linejoin="miter" stroke-width="4" xlink:href="#Fill_3"/>
</g>
<g opacity="1" vectornator:layerName="path">
<use fill="#000000" fill-rule="nonzero" stroke="none" xlink:href="#Fill_4"/>
<mask height="25.7582" id="StrokeMask_4" maskUnits="userSpaceOnUse" width="23.1252" x="177.837" y="17.162">
<rect fill="#ffffff" height="25.7582" stroke="none" width="23.1252" x="177.837" y="17.162"/>
<use fill="#000000" fill-rule="evenodd" stroke="none" xlink:href="#Fill_4"/>
</mask>
<use fill="none" mask="url(#StrokeMask_4)" stroke="#ffffff" stroke-linecap="round" stroke-linejoin="miter" stroke-width="4" xlink:href="#Fill_4"/>
</g>
<g opacity="1" vectornator:layerName="path">
<use fill="#000000" fill-rule="nonzero" stroke="none" xlink:href="#Fill_5"/>
<mask height="25.7582" id="StrokeMask_5" maskUnits="userSpaceOnUse" width="16.9984" x="200.487" y="17.162">
<rect fill="#ffffff" height="25.7582" stroke="none" width="16.9984" x="200.487" y="17.162"/>
<use fill="#000000" fill-rule="evenodd" stroke="none" xlink:href="#Fill_5"/>
</mask>
<use fill="none" mask="url(#StrokeMask_5)" stroke="#ffffff" stroke-linecap="round" stroke-linejoin="miter" stroke-width="4" xlink:href="#Fill_5"/>
</g>
<g opacity="1" vectornator:layerName="path">
<use fill="#000000" fill-rule="nonzero" stroke="none" xlink:href="#Fill_6"/>
<mask height="25.7582" id="StrokeMask_6" maskUnits="userSpaceOnUse" width="21.7591" x="218.76" y="17.2562">
<rect fill="#ffffff" height="25.7582" stroke="none" width="21.7591" x="218.76" y="17.2562"/>
<use fill="#000000" fill-rule="evenodd" stroke="none" xlink:href="#Fill_6"/>
</mask>
<use fill="none" mask="url(#StrokeMask_6)" stroke="#ffffff" stroke-linecap="round" stroke-linejoin="miter" stroke-width="4" xlink:href="#Fill_6"/>
</g>
<g opacity="1" vectornator:layerName="path">
<use fill="#000000" fill-rule="nonzero" stroke="none" xlink:href="#Fill_7"/>
<mask height="26.7001" id="StrokeMask_7" maskUnits="userSpaceOnUse" width="18.8896" x="236.367" y="16.691">
<rect fill="#ffffff" height="26.7001" stroke="none" width="18.8896" x="236.367" y="16.691"/>
<use fill="#000000" fill-rule="evenodd" stroke="none" xlink:href="#Fill_7"/>
</mask>
<use fill="none" mask="url(#StrokeMask_7)" stroke="#ffffff" stroke-linecap="round" stroke-linejoin="miter" stroke-width="4" xlink:href="#Fill_7"/>
</g>
<g opacity="1" vectornator:layerName="path">
<use fill="#000000" fill-rule="nonzero" stroke="none" xlink:href="#Fill_8"/>
<mask height="25.7582" id="StrokeMask_8" maskUnits="userSpaceOnUse" width="7.2967" x="257.002" y="17.162">
<rect fill="#ffffff" height="25.7582" stroke="none" width="7.2967" x="257.002" y="17.162"/>
<use fill="#000000" fill-rule="evenodd" stroke="none" xlink:href="#Fill_8"/>
</mask>
<use fill="none" mask="url(#StrokeMask_8)" stroke="#ffffff" stroke-linecap="round" stroke-linejoin="miter" stroke-width="4" xlink:href="#Fill_8"/>
</g>
<g opacity="1" vectornator:layerName="path">
<use fill="#000000" fill-rule="nonzero" stroke="none" xlink:href="#Fill_9"/>
<mask height="25.7582" id="StrokeMask_9" maskUnits="userSpaceOnUse" width="21.5196" x="264.631" y="17.162">
<rect fill="#ffffff" height="25.7582" stroke="none" width="21.5196" x="264.631" y="17.162"/>
<use fill="#000000" fill-rule="evenodd" stroke="none" xlink:href="#Fill_9"/>
</mask>
<use fill="none" mask="url(#StrokeMask_9)" stroke="#ffffff" stroke-linecap="round" stroke-linejoin="miter" stroke-width="4" xlink:href="#Fill_9"/>
</g>
<g opacity="1" vectornator:layerName="g">
<g opacity="1" vectornator:layerName="path">
<use fill="#000000" fill-rule="nonzero" stroke="none" xlink:href="#Fill_10"/>
<mask height="25.8524" id="StrokeMask_10" maskUnits="userSpaceOnUse" width="16.9984" x="286.39" y="17.162">
<rect fill="#ffffff" height="25.8524" stroke="none" width="16.9984" x="286.39" y="17.162"/>
<use fill="#000000" fill-rule="evenodd" stroke="none" xlink:href="#Fill_10"/>
</mask>
<use fill="none" mask="url(#StrokeMask_10)" stroke="#ffffff" stroke-linecap="round" stroke-linejoin="miter" stroke-width="4" xlink:href="#Fill_10"/>
</g>
<g opacity="1" vectornator:layerName="path">
<use fill="#000000" fill-rule="nonzero" stroke="none" xlink:href="#Fill_11"/>
<mask height="10.3834" id="StrokeMask_11" maskUnits="userSpaceOnUse" width="11.9029" x="290.525" y="9.08463">
<rect fill="#ffffff" height="10.3834" stroke="none" width="11.9029" x="290.525" y="9.08463"/>
<use fill="#000000" fill-rule="evenodd" stroke="none" xlink:href="#Fill_11"/>
</mask>
<use fill="none" mask="url(#StrokeMask_11)" stroke="#ffffff" stroke-linecap="round" stroke-linejoin="miter" stroke-width="4" xlink:href="#Fill_11"/>
</g>
</g>
</g>
<g opacity="1" vectornator:layerName="g">
<g opacity="1" vectornator:layerName="path">
<use fill="#000000" fill-rule="nonzero" stroke="none" xlink:href="#Fill_12"/>
<mask height="51.3091" id="StrokeMask_12" maskUnits="userSpaceOnUse" width="51.119" x="182.685" y="47.4666">
<rect fill="#ffffff" height="51.3091" stroke="none" width="51.119" x="182.685" y="47.4666"/>
<use fill="#000000" fill-rule="evenodd" stroke="none" xlink:href="#Fill_12"/>
</mask>
<use fill="none" mask="url(#StrokeMask_12)" stroke="#ffffff" stroke-linecap="round" stroke-linejoin="miter" stroke-width="4" xlink:href="#Fill_12"/>
</g>
<g opacity="1" vectornator:layerName="path">
<use fill="#000000" fill-rule="nonzero" stroke="none" xlink:href="#Fill_13"/>
<mask height="52.2006" id="StrokeMask_13" maskUnits="userSpaceOnUse" width="84.6826" x="218.949" y="47.5858">
<rect fill="#ffffff" height="52.2006" stroke="none" width="84.6826" x="218.949" y="47.5858"/>
<use fill="#000000" fill-rule="evenodd" stroke="none" xlink:href="#Fill_13"/>
</mask>
<use fill="none" mask="url(#StrokeMask_13)" stroke="#ffffff" stroke-linecap="round" stroke-linejoin="miter" stroke-width="4" xlink:href="#Fill_13"/>
</g>
<g opacity="1" vectornator:layerName="path">
<use fill="#000000" fill-rule="nonzero" stroke="none" xlink:href="#Fill_14"/>
<mask height="51.1899" id="StrokeMask_14" maskUnits="userSpaceOnUse" width="79.2589" x="118.917" y="47.5858">
<rect fill="#ffffff" height="51.1899" stroke="none" width="79.2589" x="118.917" y="47.5858"/>
<use fill="#000000" fill-rule="evenodd" stroke="none" xlink:href="#Fill_14"/>
</mask>
<use fill="none" mask="url(#StrokeMask_14)" stroke="#ffffff" stroke-linecap="round" stroke-linejoin="miter" stroke-width="4" xlink:href="#Fill_14"/>
</g>
</g>
<g opacity="1" vectornator:layerName="path">
<use fill="#000000" fill-rule="nonzero" stroke="none" xlink:href="#Fill_15"/>
<mask height="124.471" id="StrokeMask_15" maskUnits="userSpaceOnUse" width="99.3217" x="6.92364" y="1.71459">
<rect fill="#ffffff" height="124.471" stroke="none" width="99.3217" x="6.92364" y="1.71459"/>
<use fill="#000000" fill-rule="evenodd" stroke="none" xlink:href="#Fill_15"/>
</mask>
<use fill="none" mask="url(#StrokeMask_15)" stroke="#ffffff" stroke-linecap="round" stroke-linejoin="miter" stroke-width="4" xlink:href="#Fill_15"/>
</g>
<g opacity="1" vectornator:layerName="g">
<path d="M11.1842 5.97519L48.0131 5.97519L48.0131 5.97519L48.0131 49.5858L48.0131 49.5858L11.1842 49.5858L11.1842 49.5858L11.1842 5.97519L11.1842 5.97519Z" fill="#eb1a21" fill-rule="nonzero" opacity="1" stroke="none" vectornator:layerName="rect"/>
<path d="M11.1842 66.4461L11.1842 97.906C11.1842 104.97 16.6473 110.057 23.1465 110.057C23.1465 110.057 45.4699 110.057 45.5641 110.057C46.4118 110.057 47.2595 110.151 48.1073 110.433L48.1073 66.4461L11.1842 66.4461Z" fill="#eb1a21" fill-rule="nonzero" opacity="1" stroke="none" vectornator:layerName="path"/>
<path d="M64.9675 5.97519L101.796 5.97519L101.796 5.97519L101.796 49.5858L101.796 49.5858L64.9675 49.5858L64.9675 49.5858L64.9675 5.97519L64.9675 5.97519Z" fill="#eb1a21" fill-rule="nonzero" opacity="1" stroke="none" vectornator:layerName="rect"/>
<path d="M64.9675 110.433C65.8153 110.151 66.663 110.057 67.5107 110.057L89.9283 110.057C96.4275 110.057 101.891 104.97 101.891 97.906L101.891 66.4461L64.9675 66.4461L64.9675 110.433Z" fill="#eb1a21" fill-rule="nonzero" opacity="1" stroke="none" vectornator:layerName="path"/>
</g>
<path d="M64.9675 49.5858L64.9675 5.97519L48.0131 5.97519L48.0131 49.5858L11.1842 49.5858L11.1842 66.4461L48.0131 66.4461L48.0131 110.433C51.2156 111.375 54.6065 114.013 56.4903 119.287C58.2799 114.013 61.765 111.375 64.9675 110.433L64.9675 66.4461L101.796 66.4461L101.796 49.5858L64.9675 49.5858Z" fill="#ffc40a" fill-rule="nonzero" opacity="1" stroke="none" vectornator:layerName="path"/>
<g opacity="1" vectornator:layerName="g">
<path d="M24.842 23.9657C24.9362 24.2483 24.7478 24.4367 24.5594 24.5309C24.1827 24.7193 23.0524 24.8135 22.6756 24.6251C22.6756 24.6251 22.1104 25.6612 21.2627 25.6612C20.415 25.6612 19.8498 24.6251 19.8498 24.6251C19.4731 24.7193 18.3428 24.7193 17.8718 24.5309C17.6834 24.4367 17.4951 24.2483 17.5893 23.9657C17.7776 23.0238 18.5312 20.1981 18.8137 19.162L17.3067 19.7271C17.0241 20.8574 16.2706 22.7413 14.8577 22.8354C14.6693 22.8354 14.3867 22.7413 14.3867 22.5529C14.5751 21.0458 15.517 13.9815 15.6112 13.3221C15.7054 12.6628 15.8938 12.3802 16.3648 12.1918C16.8357 12.0034 17.1183 12.1918 17.6834 12.5686C18.0602 12.9454 19.4731 14.1698 19.4731 14.1698C19.4731 14.1698 19.6615 13.0395 19.6615 12.6628C19.4731 12.6628 19.2847 12.6628 19.2847 12.6628C19.0963 12.6628 18.9079 12.4744 18.9079 12.286L19.0963 10.8731C19.0963 10.6848 19.1905 10.5906 19.2847 10.5906C19.2847 10.5906 19.8498 10.308 20.3208 10.1196C20.7918 9.93123 21.1685 9.93123 21.1685 9.93123C21.5453 9.93123 21.8279 10.0254 22.1104 10.2138C22.393 10.4022 22.5814 10.7789 22.5814 11.1557L22.864 14.1698C22.864 14.1698 24.1827 12.9454 24.5594 12.5686C25.2188 12.1918 25.5013 12.0034 25.9723 12.1918C26.4432 12.3802 26.6316 12.6628 26.7258 13.3221C26.82 13.9815 27.7619 21.0458 27.9503 22.5529C27.9503 22.7413 27.6677 22.8354 27.4794 22.8354C26.0665 22.7413 25.3129 20.8574 25.0304 19.7271L23.5233 19.162C23.8059 20.1981 24.5594 23.118 24.842 23.9657Z" fill="#000000" fill-rule="nonzero" opacity="1" stroke="none" vectornator:layerName="path"/>
<path d="M41.7023 23.9657C41.7964 24.2483 41.6081 24.4367 41.4197 24.5309C41.0429 24.7193 39.9126 24.8135 39.5359 24.6251C39.5359 24.6251 38.9707 25.6612 38.123 25.6612C37.2753 25.6612 36.7101 24.6251 36.7101 24.6251C36.2392 24.7193 35.203 24.7193 34.8263 24.5309C34.6379 24.4367 34.4495 24.2483 34.5437 23.9657C34.7321 23.0238 35.4856 20.1981 35.7682 19.162L34.1669 19.7271C33.8844 20.8574 33.1308 22.7413 31.718 22.8354C31.5296 22.8354 31.247 22.7413 31.247 22.5529C31.4354 21.0458 32.3773 13.9815 32.4715 13.3221C32.5657 12.6628 32.7541 12.3802 33.225 12.1918C33.696 12.0034 33.9786 12.1918 34.5437 12.5686C34.9205 12.9454 36.3333 14.1698 36.3333 14.1698C36.3333 14.1698 36.5217 13.0395 36.5217 12.6628C36.3333 12.6628 36.145 12.6628 36.145 12.6628C35.9566 12.6628 35.7682 12.4744 35.7682 12.286L35.9566 10.8731C35.9566 10.6848 36.0508 10.5906 36.145 10.5906C36.145 10.5906 36.7101 10.308 37.1811 10.1196C37.652 9.93123 38.0288 9.93123 38.0288 9.93123C38.4056 9.93123 38.6881 10.0254 38.9707 10.2138C39.2533 10.4022 39.4417 10.7789 39.4417 11.1557L39.7242 14.1698C39.7242 14.1698 41.1371 12.9454 41.4197 12.5686C42.079 12.1918 42.4558 12.0976 42.8326 12.1918C43.3035 12.3802 43.4919 12.6628 43.5861 13.3221C43.6803 13.9815 44.6222 21.0458 44.8106 22.5529C44.8106 22.7413 44.528 22.8354 44.3396 22.8354C42.9267 22.7413 42.1732 20.8574 41.8906 19.7271L40.3836 19.162C40.6661 20.1981 41.4197 23.118 41.7023 23.9657Z" fill="#000000" fill-rule="nonzero" opacity="1" stroke="none" vectornator:layerName="path"/>
<path d="M24.842 43.9343C24.9362 44.2169 24.7478 44.4053 24.5594 44.4995C24.1827 44.6879 23.0524 44.782 22.6756 44.6879C22.6756 44.6879 22.1104 45.724 21.2627 45.724C20.415 45.724 19.8498 44.6879 19.8498 44.6879C19.4731 44.8762 18.3428 44.782 17.8718 44.4995C17.6834 44.4053 17.4951 44.2169 17.5893 43.9343C17.7776 42.9924 18.5312 40.1667 18.8137 39.1306L17.3067 39.6957C17.0241 40.826 16.2706 42.7098 14.8577 42.804C14.6693 42.804 14.3867 42.7098 14.3867 42.5215C14.5751 40.9202 15.517 33.8558 15.6112 33.1965C15.7054 32.5372 15.8938 32.2546 16.3648 32.0662C16.8357 31.8778 17.1183 32.0662 17.6834 32.443C18.0602 32.8197 19.4731 34.0442 19.4731 34.0442C19.4731 34.0442 19.6615 32.9139 19.6615 32.5372C19.4731 32.5372 19.2847 32.5372 19.2847 32.5372C19.0963 32.5372 18.9079 32.3488 18.9079 32.1604L19.0963 30.7475C19.0963 30.6533 19.1905 30.465 19.2847 30.3708C19.2847 30.3708 19.8498 30.0882 20.3208 29.8998C20.7918 29.7114 21.1685 29.7114 21.1685 29.7114C21.5453 29.7114 21.8279 29.8056 22.1104 29.994C22.393 30.1824 22.5814 30.5591 22.5814 30.9359L22.864 33.95C22.864 33.95 24.1827 32.6314 24.5594 32.3488C25.0304 31.8778 25.4071 31.7836 25.8781 31.972C26.3491 32.1604 26.5374 32.443 26.6316 33.1023C26.7258 33.7617 27.6677 40.826 27.8561 42.3331C27.8561 42.5215 27.5735 42.6156 27.3852 42.6156C25.9723 42.5215 25.2188 40.6376 24.9362 39.5073L23.4291 38.9422C23.8059 40.0725 24.5594 42.9924 24.842 43.9343Z" fill="#000000" fill-rule="nonzero" opacity="1" stroke="none" vectornator:layerName="path"/>
<path d="M41.7023 43.9343C41.7964 44.2169 41.6081 44.4053 41.4197 44.4995C41.0429 44.6879 39.9126 44.782 39.5359 44.6879C39.5359 44.6879 38.9707 45.724 38.123 45.724C37.2753 45.724 36.7101 44.6879 36.7101 44.6879C36.2392 44.8762 35.203 44.782 34.8263 44.4995C34.6379 44.4053 34.4495 44.2169 34.5437 43.9343C34.7321 42.9924 35.4856 40.1667 35.7682 39.1306L34.2611 39.6957C33.9786 40.826 33.225 42.7098 31.8122 42.804C31.6238 42.804 31.3412 42.7098 31.3412 42.5215C31.5296 40.9202 32.4715 33.95 32.5657 33.2907C32.6599 32.6314 32.8483 32.3488 33.3192 32.1604C33.7902 31.972 34.0727 32.1604 34.6379 32.5372C35.0147 32.9139 36.4275 34.1384 36.4275 34.1384C36.4275 34.1384 36.6159 33.0081 36.6159 32.6314C36.4275 32.6314 36.2392 32.6314 36.2392 32.6314C36.0508 32.6314 35.8624 32.443 35.8624 32.2546L36.0508 30.8417C36.0508 30.7475 36.145 30.5591 36.2392 30.465C36.2392 30.465 36.8043 30.1824 37.2753 29.994C37.7462 29.8056 38.123 29.8056 38.123 29.8056C38.4997 29.8056 38.7823 29.8998 39.0649 30.0882C39.3475 30.2766 39.5359 30.6533 39.5359 31.0301L39.8184 34.0442C39.8184 34.0442 41.2313 32.7255 41.5139 32.443C41.9848 31.972 42.3616 31.8778 42.8326 32.0662C43.3035 32.2546 43.4919 32.5372 43.5861 33.1965C43.6803 33.8558 44.6222 40.9202 44.8106 42.4273C44.8106 42.6156 44.528 42.7098 44.3396 42.7098C42.9267 42.6156 42.1732 40.7318 41.8906 39.6015L40.3836 39.0364C40.6661 40.0725 41.4197 42.9924 41.7023 43.9343Z" fill="#000000" fill-rule="nonzero" opacity="1" stroke="none" vectornator:layerName="path"/>
<path d="M78.5311 23.9657C78.6253 24.2483 78.4369 24.4367 78.2485 24.5309C77.8718 24.7193 76.7415 24.8135 76.3647 24.6251C76.3647 24.6251 75.7995 25.6612 74.9518 25.6612C74.1041 25.6612 73.539 24.6251 73.539 24.6251C73.1622 24.7193 72.0319 24.7193 71.6551 24.5309C71.4667 24.4367 71.2784 24.2483 71.3725 23.9657C71.5609 23.0238 72.3145 20.1981 72.597 19.162L70.9958 19.7271C70.7132 20.8574 69.9597 22.7413 68.5468 22.8354C68.3584 22.8354 68.0758 22.7413 68.0758 22.5529C68.2642 21.0458 69.2061 13.9815 69.3003 13.3221C69.3945 12.6628 69.5829 12.3802 70.0539 12.1918C70.5248 12.0034 70.8074 12.1918 71.3725 12.5686C71.7493 12.9454 73.068 14.1698 73.068 14.1698C73.068 14.1698 73.2564 13.0395 73.2564 12.6628C73.068 12.6628 72.8796 12.6628 72.8796 12.6628C72.6912 12.6628 72.5028 12.4744 72.5028 12.286L72.6912 10.8731C72.6912 10.6848 72.7854 10.5906 72.8796 10.5906C72.8796 10.5906 73.4448 10.308 74.0099 10.1196C74.4809 9.93123 74.8576 9.93123 74.8576 9.93123C75.2344 9.93123 75.517 10.0254 75.7995 10.2138C76.0821 10.4022 76.2705 10.7789 76.2705 11.1557L76.5531 14.1698C76.5531 14.1698 77.8718 12.9454 78.2485 12.5686C78.9079 12.1918 79.2846 12.0976 79.6614 12.1918C80.1323 12.3802 80.3207 12.6628 80.4149 13.3221C80.5091 13.9815 81.451 21.0458 81.6394 22.5529C81.6394 22.7413 81.3568 22.8354 81.1685 22.8354C79.7556 22.7413 79.0021 20.8574 78.7195 19.7271L77.2124 19.162C77.495 20.1981 78.2485 23.118 78.5311 23.9657Z" fill="#000000" fill-rule="nonzero" opacity="1" stroke="none" vectornator:layerName="path"/>
<path d="M95.3914 23.9657C95.4855 24.2483 95.2972 24.4367 95.1088 24.5309C94.732 24.7193 93.6017 24.8135 93.225 24.6251C93.225 24.6251 92.6598 25.6612 91.8121 25.6612C90.9644 25.6612 90.3992 24.6251 90.3992 24.6251C90.0224 24.7193 88.8922 24.7193 88.4212 24.5309C88.2328 24.4367 88.0444 24.2483 88.1386 23.9657C88.327 23.0238 89.0805 20.1981 89.3631 19.162L87.9502 19.7271C87.6677 20.8574 86.9141 22.7413 85.5013 22.8354C85.3129 22.8354 85.0303 22.7413 85.0303 22.5529C85.2187 21.0458 86.1606 13.9815 86.2548 13.3221C86.349 12.6628 86.5374 12.3802 87.0083 12.1918C87.4793 12.0034 87.7619 12.1918 88.327 12.5686C88.7038 12.9454 90.0224 14.1698 90.0224 14.1698C90.0224 14.1698 90.2108 13.0395 90.2108 12.6628C90.0224 12.6628 89.8341 12.6628 89.8341 12.6628C89.6457 12.6628 89.4573 12.4744 89.4573 12.286L89.6457 10.8731C89.6457 10.6848 89.7399 10.5906 89.8341 10.5906C89.8341 10.5906 90.3992 10.308 90.9644 10.1196C91.4353 9.93123 91.8121 9.93123 91.8121 9.93123C92.1889 9.93123 92.4714 10.0254 92.754 10.2138C93.0366 10.4022 93.225 10.7789 93.225 11.1557L93.5075 14.1698C93.5075 14.1698 94.8262 12.9454 95.203 12.5686C95.7681 12.1918 96.1449 12.0034 96.6158 12.1918C97.0868 12.3802 97.2752 12.6628 97.3694 13.3221C97.4636 13.9815 98.4055 21.0458 98.5939 22.5529C98.5939 22.7413 98.3113 22.8354 98.1229 22.8354C96.71 22.7413 95.9565 20.8574 95.6739 19.7271L94.1669 19.162C94.4494 20.1981 95.203 23.118 95.3914 23.9657Z" fill="#000000" fill-rule="nonzero" opacity="1" stroke="none" vectornator:layerName="path"/>
<path d="M78.5311 43.9343C78.6253 44.2169 78.4369 44.4053 78.2485 44.4995C77.8718 44.6879 76.7415 44.782 76.3647 44.6879C76.3647 44.6879 75.7995 45.724 74.9518 45.724C74.1041 45.724 73.539 44.6879 73.539 44.6879C73.1622 44.8762 72.0319 44.782 71.6551 44.4995C71.4667 44.4053 71.2784 44.2169 71.3725 43.9343C71.5609 42.9924 72.3145 40.1667 72.597 39.1306L71.09 39.6957C70.8074 40.826 70.0539 42.7098 68.641 42.804C68.4526 42.804 68.17 42.7098 68.17 42.5215C68.3584 40.9202 69.3003 33.95 69.3945 33.2907C69.4887 32.6314 69.6771 32.3488 70.1481 32.1604C70.619 31.972 70.9016 32.1604 71.4667 32.5372C71.8435 32.9139 73.1622 34.1384 73.1622 34.1384C73.1622 34.1384 73.3506 33.0081 73.3506 32.6314C73.1622 32.6314 72.9738 32.6314 72.9738 32.6314C72.7854 32.6314 72.597 32.443 72.597 32.2546L72.7854 30.8417C72.7854 30.7475 72.8796 30.5591 72.9738 30.465C72.9738 30.465 73.539 30.1824 74.1041 29.994C74.5751 29.8056 74.9518 29.8056 74.9518 29.8056C75.3286 29.8056 75.6112 29.8998 75.8937 30.0882C76.1763 30.2766 76.3647 30.6533 76.3647 31.0301L76.6473 34.0442C76.6473 34.0442 77.9659 32.7255 78.3427 32.443C78.8137 31.972 79.1904 31.8778 79.6614 32.0662C80.1323 32.2546 80.3207 32.5372 80.4149 33.1965C80.5091 33.8558 81.451 40.9202 81.6394 42.4273C81.6394 42.6156 81.3568 42.7098 81.1685 42.7098C79.7556 42.6156 79.0021 40.7318 78.7195 39.6015L77.2124 39.0364C77.495 40.0725 78.2485 42.9924 78.5311 43.9343Z" fill="#000000" fill-rule="nonzero" opacity="1" stroke="none" vectornator:layerName="path"/>
<path d="M95.3914 43.9343C95.4855 44.2169 95.2972 44.4053 95.1088 44.4995C94.732 44.6879 93.6017 44.782 93.225 44.6879C93.225 44.6879 92.6598 45.724 91.8121 45.724C90.9644 45.724 90.3992 44.6879 90.3992 44.6879C90.0224 44.8762 88.8922 44.782 88.4212 44.4995C88.2328 44.4053 88.0444 44.2169 88.1386 43.9343C88.327 42.9924 89.0805 40.1667 89.3631 39.1306L87.856 39.6957C87.5735 40.826 86.8199 42.7098 85.4071 42.804C85.2187 42.804 84.9361 42.7098 84.9361 42.5215C85.1245 40.9202 86.0664 33.95 86.1606 33.2907C86.2548 32.6314 86.4432 32.3488 86.9141 32.1604C87.3851 31.972 87.6677 32.1604 88.2328 32.5372C88.6096 32.9139 89.9283 34.1384 89.9283 34.1384C89.9283 34.1384 90.1166 33.0081 90.1166 32.6314C89.9283 32.6314 89.7399 32.6314 89.7399 32.6314C89.5515 32.6314 89.3631 32.443 89.3631 32.2546L89.5515 30.8417C89.5515 30.7475 89.6457 30.5591 89.7399 30.465C89.7399 30.465 90.305 30.1824 90.8702 29.994C91.3411 29.8056 91.7179 29.8056 91.7179 29.8056C92.0947 29.8056 92.3772 29.8998 92.6598 30.0882C92.9424 30.2766 93.1308 30.6533 93.1308 31.0301L93.4133 34.0442C93.4133 34.0442 94.732 32.7255 95.1088 32.443C95.5797 31.972 95.9565 31.8778 96.4275 32.0662C96.8984 32.2546 97.0868 32.5372 97.181 33.1965C97.2752 33.8558 98.2171 40.9202 98.4055 42.4273C98.4055 42.6156 98.1229 42.7098 97.9345 42.7098C96.5217 42.6156 95.7681 40.7318 95.4855 39.6015L93.9785 39.0364C94.4494 40.0725 95.203 42.9924 95.3914 43.9343Z" fill="#000000" fill-rule="nonzero" opacity="1" stroke="none" vectornator:layerName="path"/>
<path d="M24.842 84.4366C24.9362 84.7192 24.7478 84.9076 24.5594 85.0018C24.1827 85.1902 23.0524 85.2844 22.6756 85.096C22.6756 85.096 22.1104 86.1321 21.2627 86.1321C20.415 86.1321 19.8498 85.096 19.8498 85.096C19.4731 85.2844 18.3428 85.1902 17.8718 85.0018C17.6834 84.9076 17.4951 84.7192 17.5893 84.4366C17.7776 83.5889 18.5312 80.669 18.8137 79.6329L17.3067 80.198C17.0241 81.3283 16.2706 83.2121 14.8577 83.3063C14.6693 83.3063 14.3867 83.2121 14.3867 83.0238C14.5751 81.5167 15.517 74.4523 15.6112 73.793C15.7054 73.1337 15.8938 72.8511 16.3648 72.6627C16.8357 72.4743 17.1183 72.6627 17.6834 73.0395C18.0602 73.4162 19.4731 74.6407 19.4731 74.6407C19.4731 74.6407 19.6615 73.5104 19.6615 73.1337C19.4731 73.1337 19.2847 73.1337 19.2847 73.1337C19.0963 73.1337 18.9079 72.9453 18.9079 72.7569L19.0963 71.344C19.0963 71.1556 19.1905 71.0615 19.2847 71.0615C19.2847 71.0615 19.8498 70.7789 20.3208 70.5905C20.7918 70.4021 21.1685 70.4021 21.1685 70.4021C21.5453 70.4021 21.8279 70.4963 22.1104 70.6847C22.393 70.8731 22.5814 71.2498 22.5814 71.6266L22.864 74.6407C22.864 74.6407 24.1827 73.4162 24.5594 73.0395C25.0304 72.5685 25.4071 72.4743 25.8781 72.6627C26.3491 72.8511 26.5374 73.1337 26.6316 73.793C26.7258 74.4523 27.6677 81.5167 27.8561 83.0238C27.8561 83.2121 27.5735 83.3063 27.3852 83.3063C25.9723 83.2121 25.2188 81.3283 24.9362 80.198L23.4291 79.6329C23.8059 80.669 24.5594 83.5889 24.842 84.4366Z" fill="#000000" fill-rule="nonzero" opacity="1" stroke="none" vectornator:layerName="path"/>
<path d="M41.7023 84.4366C41.7964 84.7192 41.6081 84.9076 41.4197 85.0018C41.0429 85.1902 39.9126 85.2844 39.5359 85.096C39.5359 85.096 38.9707 86.1321 38.123 86.1321C37.2753 86.1321 36.7101 85.096 36.7101 85.096C36.2392 85.2844 35.203 85.1902 34.8263 85.0018C34.6379 84.9076 34.4495 84.7192 34.5437 84.4366C34.7321 83.5889 35.4856 80.669 35.7682 79.6329L34.2611 80.198C33.9786 81.3283 33.225 83.2121 31.8122 83.3063C31.6238 83.3063 31.3412 83.2121 31.3412 83.0238C31.5296 81.4225 32.4715 74.4523 32.5657 73.793C32.6599 73.1337 32.8483 72.8511 33.3192 72.6627C33.7902 72.4743 34.0727 72.6627 34.6379 73.0395C35.0147 73.4162 36.4275 74.6407 36.4275 74.6407C36.4275 74.6407 36.6159 73.5104 36.6159 73.1337C36.4275 73.1337 36.2392 73.1337 36.2392 73.1337C36.0508 73.1337 35.8624 72.9453 35.8624 72.7569L36.0508 71.344C36.0508 71.1556 36.145 71.0615 36.2392 71.0615C36.2392 71.0615 36.8043 70.7789 37.2753 70.5905C37.7462 70.4021 38.123 70.4021 38.123 70.4021C38.4997 70.4021 38.7823 70.4963 39.0649 70.6847C39.3475 70.8731 39.5359 71.2498 39.5359 71.6266L39.8184 74.6407C39.8184 74.6407 41.2313 73.4162 41.5139 73.0395C41.9848 72.5685 42.3616 72.4743 42.8326 72.6627C43.3035 72.8511 43.4919 73.1337 43.5861 73.793C43.6803 74.4523 44.6222 81.5167 44.8106 83.0238C44.8106 83.2121 44.528 83.3063 44.3396 83.3063C42.9267 83.2121 42.1732 81.3283 41.8906 80.198L40.3836 79.6329C40.6661 80.669 41.4197 83.5889 41.7023 84.4366Z" fill="#000000" fill-rule="nonzero" opacity="1" stroke="none" vectornator:layerName="path"/>
<path d="M24.842 104.405C24.9362 104.688 24.7478 104.876 24.5594 104.97C24.1827 105.159 23.0524 105.253 22.6756 105.065C22.6756 105.065 22.1104 106.101 21.2627 106.101C20.415 106.101 19.8498 105.065 19.8498 105.065C19.4731 105.253 18.3428 105.159 17.8718 104.97C17.6834 104.876 17.4951 104.688 17.5893 104.405C17.7776 103.557 18.5312 100.638 18.8137 99.6014L17.3067 100.167C17.0241 101.297 16.2706 103.181 14.8577 103.275C14.6693 103.275 14.3867 103.181 14.3867 102.992C14.5751 101.391 15.517 94.4209 15.6112 93.7616C15.7054 93.1022 15.8938 92.8197 16.3648 92.6313C16.8357 92.4429 17.1183 92.6313 17.6834 93.0081C18.0602 93.3848 19.4731 94.6093 19.4731 94.6093C19.4731 94.6093 19.6615 93.479 19.6615 93.1022C19.4731 93.1022 19.2847 93.1022 19.2847 93.1022C19.0963 93.1022 18.9079 92.9139 18.9079 92.7255L19.0963 91.3126C19.0963 91.1242 19.1905 91.03 19.2847 91.03C19.2847 91.03 19.8498 90.7475 20.3208 90.5591C20.7918 90.3707 21.1685 90.3707 21.1685 90.3707C21.5453 90.3707 21.8279 90.4649 22.1104 90.6533C22.393 90.8416 22.5814 91.2184 22.5814 91.5952L22.864 94.6093C22.864 94.6093 24.1827 93.3848 24.5594 93.0081C25.0304 92.5371 25.4071 92.4429 25.8781 92.6313C26.3491 92.8197 26.5374 93.1022 26.6316 93.7616C26.7258 94.4209 27.6677 101.485 27.8561 102.992C27.8561 103.181 27.5735 103.275 27.3852 103.275C25.9723 103.181 25.2188 101.297 24.9362 100.167L23.4291 99.6014C23.8059 100.543 24.5594 103.463 24.842 104.405Z" fill="#000000" fill-rule="nonzero" opacity="1" stroke="none" vectornator:layerName="path"/>
<path d="M41.7023 104.405C41.7964 104.688 41.6081 104.876 41.4197 104.97C41.0429 105.159 39.9126 105.253 39.5359 105.065C39.5359 105.065 38.9707 106.101 38.123 106.101C37.2753 106.101 36.7101 105.065 36.7101 105.065C36.2392 105.253 35.203 105.159 34.8263 104.97C34.6379 104.876 34.4495 104.688 34.5437 104.405C34.7321 103.557 35.4856 100.638 35.7682 99.6014L34.2611 100.167C33.9786 101.297 33.225 103.181 31.8122 103.275C31.6238 103.275 31.3412 103.181 31.3412 102.992C31.5296 101.391 32.4715 94.4209 32.5657 93.7616C32.6599 93.1022 32.8483 92.8197 33.3192 92.6313C33.7902 92.4429 34.0727 92.6313 34.6379 93.0081C35.0147 93.3848 36.4275 94.6093 36.4275 94.6093C36.4275 94.6093 36.6159 93.479 36.6159 93.1022C36.4275 93.1022 36.2392 93.1022 36.2392 93.1022C36.0508 93.1022 35.8624 92.9139 35.8624 92.7255L36.0508 91.3126C36.0508 91.1242 36.145 91.03 36.2392 91.03C36.2392 91.03 36.8043 90.7475 37.2753 90.5591C37.7462 90.3707 38.123 90.3707 38.123 90.3707C38.4997 90.3707 38.7823 90.4649 39.0649 90.6533C39.3475 90.8416 39.5359 91.2184 39.5359 91.5952L39.8184 94.6093C39.8184 94.6093 41.2313 93.3848 41.5139 93.0081C41.9848 92.5371 42.3616 92.4429 42.8326 92.6313C43.3035 92.8197 43.4919 93.1022 43.5861 93.7616C43.6803 94.4209 44.6222 101.485 44.8106 102.992C44.8106 103.181 44.528 103.275 44.3396 103.275C42.9267 103.181 42.1732 101.297 41.8906 100.167L40.3836 99.6014C40.6661 100.543 41.4197 103.463 41.7023 104.405Z" fill="#000000" fill-rule="nonzero" opacity="1" stroke="none" vectornator:layerName="path"/>
<path d="M78.5311 84.4366C78.6253 84.7192 78.4369 84.9076 78.2485 85.0018C77.8718 85.1902 76.7415 85.2844 76.3647 85.096C76.3647 85.096 75.7995 86.1321 74.9518 86.1321C74.1041 86.1321 73.539 85.096 73.539 85.096C73.1622 85.2844 72.0319 85.1902 71.6551 85.0018C71.4667 84.9076 71.2784 84.7192 71.3725 84.4366C71.5609 83.5889 72.3145 80.669 72.597 79.6329L71.09 80.198C70.8074 81.3283 70.0539 83.2121 68.641 83.3063C68.4526 83.3063 68.17 83.2121 68.17 83.0238C68.3584 81.4225 69.3003 74.4523 69.3945 73.793C69.4887 73.1337 69.6771 72.8511 70.1481 72.6627C70.619 72.4743 70.9016 72.6627 71.4667 73.0395C71.8435 73.4162 73.1622 74.6407 73.1622 74.6407C73.1622 74.6407 73.3506 73.5104 73.3506 73.1337C73.1622 73.1337 72.9738 73.1337 72.9738 73.1337C72.7854 73.1337 72.597 72.9453 72.597 72.7569L72.7854 71.344C72.7854 71.1556 72.8796 71.0615 72.9738 71.0615C72.9738 71.0615 73.539 70.7789 74.1041 70.5905C74.5751 70.4021 74.9518 70.4021 74.9518 70.4021C75.3286 70.4021 75.6112 70.4963 75.8937 70.6847C76.1763 70.8731 76.3647 71.2498 76.3647 71.6266L76.6473 74.6407C76.6473 74.6407 77.9659 73.4162 78.3427 73.0395C78.8137 72.5685 79.1904 72.4743 79.6614 72.6627C80.1323 72.8511 80.3207 73.1337 80.4149 73.793C80.5091 74.4523 81.451 81.5167 81.6394 83.0238C81.6394 83.2121 81.3568 83.3063 81.1685 83.3063C79.7556 83.2121 79.0021 81.3283 78.7195 80.198L77.2124 79.6329C77.495 80.669 78.2485 83.5889 78.5311 84.4366Z" fill="#000000" fill-rule="nonzero" opacity="1" stroke="none" vectornator:layerName="path"/>
<path d="M95.3914 84.4366C95.4855 84.7192 95.2972 84.9076 95.1088 85.0018C94.732 85.1902 93.6017 85.2844 93.225 85.096C93.225 85.096 92.6598 86.1321 91.8121 86.1321C90.9644 86.1321 90.3992 85.096 90.3992 85.096C90.0224 85.2844 88.8922 85.1902 88.4212 85.0018C88.2328 84.9076 88.0444 84.7192 88.1386 84.4366C88.327 83.5889 89.0805 80.669 89.3631 79.6329L87.856 80.198C87.5735 81.3283 86.8199 83.2121 85.4071 83.3063C85.2187 83.3063 84.9361 83.2121 84.9361 83.0238C85.1245 81.4225 86.0664 74.4523 86.1606 73.793C86.2548 73.1337 86.4432 72.8511 86.9141 72.6627C87.3851 72.4743 87.6677 72.6627 88.2328 73.0395C88.6096 73.4162 89.9283 74.6407 89.9283 74.6407C89.9283 74.6407 90.1166 73.5104 90.1166 73.1337C89.9283 73.1337 89.7399 73.1337 89.7399 73.1337C89.5515 73.1337 89.3631 72.9453 89.3631 72.7569L89.5515 71.344C89.5515 71.1556 89.6457 71.0615 89.7399 71.0615C89.7399 71.0615 90.305 70.7789 90.8702 70.5905C91.3411 70.4021 91.7179 70.4021 91.7179 70.4021C92.0947 70.4021 92.3772 70.4963 92.6598 70.6847C92.9424 70.8731 93.1308 71.2498 93.1308 71.6266L93.4133 74.6407C93.4133 74.6407 94.732 73.4162 95.1088 73.0395C95.5797 72.5685 95.9565 72.4743 96.4275 72.6627C96.8984 72.8511 97.0868 73.1337 97.181 73.793C97.2752 74.4523 98.2171 81.5167 98.4055 83.0238C98.4055 83.2121 98.1229 83.3063 97.9345 83.3063C96.5217 83.2121 95.7681 81.3283 95.4855 80.198L93.9785 79.6329C94.4494 80.669 95.203 83.5889 95.3914 84.4366Z" fill="#000000" fill-rule="nonzero" opacity="1" stroke="none" vectornator:layerName="path"/>
<path d="M78.5311 104.405C78.6253 104.688 78.4369 104.876 78.2485 104.97C77.8718 105.159 76.7415 105.253 76.3647 105.065C76.3647 105.065 75.7995 106.101 74.9518 106.101C74.1041 106.101 73.539 105.065 73.539 105.065C73.1622 105.253 72.0319 105.159 71.6551 104.97C71.4667 104.876 71.2784 104.688 71.3725 104.405C71.5609 103.557 72.3145 100.638 72.597 99.6014L71.09 100.167C70.8074 101.297 70.0539 103.181 68.641 103.275C68.4526 103.275 68.17 103.181 68.17 102.992C68.3584 101.391 69.3003 94.4209 69.3945 93.7616C69.4887 93.1022 69.6771 92.8197 70.1481 92.6313C70.619 92.4429 70.9016 92.6313 71.4667 93.0081C71.8435 93.3848 73.1622 94.6093 73.1622 94.6093C73.1622 94.6093 73.3506 93.479 73.3506 93.1022C73.1622 93.1022 72.9738 93.1022 72.9738 93.1022C72.7854 93.1022 72.597 92.9139 72.597 92.7255L72.7854 91.3126C72.7854 91.1242 72.8796 91.03 72.9738 91.03C72.9738 91.03 73.539 90.7475 74.1041 90.5591C74.5751 90.3707 74.9518 90.3707 74.9518 90.3707C75.3286 90.3707 75.6112 90.4649 75.8937 90.6533C76.1763 90.8416 76.3647 91.2184 76.3647 91.5952L76.6473 94.6093C76.6473 94.6093 77.9659 93.3848 78.3427 93.0081C78.8137 92.5371 79.1904 92.4429 79.6614 92.6313C80.1323 92.8197 80.3207 93.1022 80.4149 93.7616C80.5091 94.4209 81.451 101.485 81.6394 102.992C81.6394 103.181 81.3568 103.275 81.1685 103.275C79.7556 103.181 79.0021 101.297 78.7195 100.167L77.2124 99.6014C77.495 100.543 78.2485 103.463 78.5311 104.405Z" fill="#000000" fill-rule="nonzero" opacity="1" stroke="none" vectornator:layerName="path"/>
<path d="M95.3914 104.405C95.4855 104.688 95.2972 104.876 95.1088 104.97C94.732 105.159 93.6017 105.253 93.225 105.065C93.225 105.065 92.6598 106.101 91.8121 106.101C90.9644 106.101 90.3992 105.065 90.3992 105.065C90.0224 105.253 88.8922 105.159 88.4212 104.97C88.2328 104.876 88.0444 104.688 88.1386 104.405C88.327 103.557 89.0805 100.638 89.3631 99.6014L87.856 100.167C87.5735 101.297 86.8199 103.181 85.4071 103.275C85.2187 103.275 84.9361 103.181 84.9361 102.992C85.1245 101.391 86.0664 94.4209 86.1606 93.7616C86.2548 93.1022 86.4432 92.8197 86.9141 92.6313C87.3851 92.4429 87.6677 92.6313 88.2328 93.0081C88.6096 93.3848 89.9283 94.6093 89.9283 94.6093C89.9283 94.6093 90.1166 93.479 90.1166 93.1022C89.9283 93.1022 89.7399 93.1022 89.7399 93.1022C89.5515 93.1022 89.3631 92.9139 89.3631 92.7255L89.5515 91.3126C89.5515 91.1242 89.6457 91.03 89.7399 91.03C89.7399 91.03 90.305 90.7475 90.8702 90.5591C91.3411 90.3707 91.7179 90.3707 91.7179 90.3707C92.0947 90.3707 92.3772 90.4649 92.6598 90.6533C92.9424 90.8416 93.1308 91.2184 93.1308 91.5952L93.4133 94.6093C93.4133 94.6093 94.732 93.3848 95.1088 93.0081C95.5797 92.5371 95.9565 92.4429 96.4275 92.6313C96.8984 92.8197 97.0868 93.1022 97.181 93.7616C97.2752 94.4209 98.2171 101.485 98.4055 102.992C98.4055 103.181 98.1229 103.275 97.9345 103.275C96.5217 103.181 95.7681 101.297 95.4855 100.167L93.9785 99.6014C94.4494 100.543 95.203 103.463 95.3914 104.405Z" fill="#000000" fill-rule="nonzero" opacity="1" stroke="none" vectornator:layerName="path"/>
</g>
<g opacity="1" vectornator:layerName="g">
<path d="M56.4903 34.0442C57.2438 34.0442 57.809 33.6675 58.1858 33.1023C58.4683 33.1965 58.7509 33.2907 59.1277 33.2907C60.1638 33.2907 61.0115 32.443 61.1999 31.4069C62.3302 31.4069 63.1779 30.465 63.1779 29.3347C63.1779 28.8637 62.9895 28.3927 62.7069 28.016C62.236 27.4508 60.4463 25.2844 60.3522 25.1902C60.3522 25.096 60.3522 24.0599 60.3522 24.0599C60.3522 23.4948 59.8812 23.0238 59.4102 23.0238C59.4102 23.0238 58.4683 23.0238 58.3741 23.0238C58.2799 22.9296 57.4322 22.0819 57.4322 22.0819C57.1496 21.7993 56.8671 21.7052 56.4903 21.7052C56.1135 21.7052 55.7368 21.7993 55.5484 22.0819C55.5484 22.0819 54.7007 22.9296 54.6065 23.0238C54.5123 23.0238 53.5704 23.0238 53.5704 23.0238C53.0052 23.0238 52.6285 23.4948 52.6285 24.0599C52.6285 24.0599 52.6285 25.096 52.6285 25.1902C52.6285 25.1902 50.8388 27.3566 50.2737 28.016C49.9911 28.3927 49.8027 28.8637 49.8027 29.3347C49.8027 30.465 50.7446 31.3127 51.7807 31.4069C51.8749 32.443 52.7226 33.2907 53.8529 33.2907C54.2297 33.2907 54.5123 33.1965 54.7949 33.1023C55.1716 33.6675 55.7368 34.0442 56.4903 34.0442Z" fill="#000000" fill-rule="nonzero" opacity="1" stroke="none" vectornator:layerName="path"/>
<path d="M56.4903 64.1855C57.2438 64.1855 57.809 63.8087 58.1858 63.2436C58.4683 63.4319 58.7509 63.4319 59.1277 63.4319C60.1638 63.4319 61.0115 62.5842 61.1999 61.5481C62.3302 61.5481 63.1779 60.6062 63.1779 59.4759C63.1779 59.005 62.9895 58.534 62.7069 58.1572C62.236 57.5921 60.4463 55.4257 60.3522 55.3315C60.3522 55.2373 60.3522 54.2012 60.3522 54.2012C60.3522 53.636 59.8812 53.1651 59.4102 53.1651C59.4102 53.1651 58.4683 53.1651 58.3741 53.1651C58.2799 53.0709 57.4322 52.2232 57.4322 52.2232C57.1496 51.9406 56.8671 51.8464 56.4903 51.8464C56.1135 51.8464 55.7368 52.0348 55.5484 52.2232C55.5484 52.2232 54.7007 53.0709 54.6065 53.1651C54.5123 53.1651 53.5704 53.1651 53.5704 53.1651C53.0052 53.1651 52.6285 53.636 52.6285 54.2012C52.6285 54.2012 52.6285 55.2373 52.6285 55.3315C52.6285 55.3315 50.8388 57.4979 50.2737 58.1572C49.9911 58.534 49.8027 59.005 49.8027 59.4759C49.8027 60.6062 50.7446 61.5481 51.7807 61.5481C51.8749 62.5842 52.7226 63.4319 53.8529 63.4319C54.2297 63.4319 54.5123 63.3378 54.7949 63.2436C55.1716 63.8087 55.7368 64.1855 56.4903 64.1855Z" fill="#000000" fill-rule="nonzero" opacity="1" stroke="none" vectornator:layerName="path"/>
<path d="M29.6458 64.1855C30.3993 64.1855 30.9644 63.8087 31.3412 63.2436C31.6238 63.4319 31.9063 63.4319 32.2831 63.4319C33.3192 63.4319 34.1669 62.5842 34.3553 61.5481C35.4856 61.5481 36.3333 60.6062 36.3333 59.4759C36.3333 59.005 36.145 58.534 35.8624 58.1572C35.3914 57.5921 33.6018 55.4257 33.5076 55.3315C33.5076 55.2373 33.5076 54.2012 33.5076 54.2012C33.5076 53.636 33.0366 53.1651 32.5657 53.1651C32.5657 53.1651 31.6238 53.1651 31.5296 53.1651C31.4354 53.0709 30.5877 52.2232 30.5877 52.2232C30.3051 51.9406 30.0225 51.8464 29.6458 51.8464C29.269 51.8464 28.8922 52.0348 28.7038 52.2232C28.7038 52.2232 27.8561 53.0709 27.7619 53.1651C27.6677 53.1651 26.7258 53.1651 26.7258 53.1651C26.1607 53.1651 25.7839 53.636 25.7839 54.2012C25.7839 54.2012 25.7839 55.2373 25.7839 55.3315C25.7839 55.3315 23.9943 57.4979 23.5233 58.1572C23.2407 58.534 23.0524 59.005 23.0524 59.4759C23.0524 60.6062 23.9001 61.5481 25.0304 61.5481C25.1246 62.5842 25.9723 63.4319 27.1026 63.4319C27.4794 63.4319 27.7619 63.3378 28.0445 63.2436C28.2329 63.8087 28.8922 64.1855 29.6458 64.1855Z" fill="#000000" fill-rule="nonzero" opacity="1" stroke="none" vectornator:layerName="path"/>
<path d="M83.3349 64.1855C84.0884 64.1855 84.6535 63.8087 85.0303 63.2436C85.3129 63.4319 85.6896 63.4319 85.9722 63.4319C87.0083 63.4319 87.856 62.5842 88.0444 61.5481C89.1747 61.5481 90.0224 60.6062 90.0224 59.4759C90.0224 59.005 89.8341 58.534 89.5515 58.1572C89.0805 57.5921 87.2909 55.4257 87.2909 55.3315C87.2909 55.2373 87.2909 54.2012 87.2909 54.2012C87.2909 53.636 86.8199 53.1651 86.2548 53.1651C86.2548 53.1651 85.3129 53.1651 85.2187 53.1651C85.1245 53.0709 84.2768 52.2232 84.2768 52.2232C83.9942 51.9406 83.7116 51.8464 83.3349 51.8464C82.9581 51.8464 82.5813 52.0348 82.3929 52.2232C82.3929 52.2232 81.5452 53.0709 81.451 53.1651C81.3568 53.1651 80.4149 53.1651 80.4149 53.1651C79.8498 53.1651 79.3788 53.636 79.3788 54.2012C79.3788 54.2012 79.3788 55.2373 79.3788 55.3315C79.3788 55.3315 77.5892 57.4979 77.1182 58.1572C76.8357 58.534 76.6473 59.005 76.6473 59.4759C76.6473 60.6062 77.5892 61.5481 78.6253 61.5481C78.7195 62.5842 79.5672 63.4319 80.6975 63.4319C81.0743 63.4319 81.3568 63.3378 81.6394 63.2436C82.0162 63.8087 82.5813 64.1855 83.3349 64.1855Z" fill="#000000" fill-rule="nonzero" opacity="1" stroke="none" vectornator:layerName="path"/>
<path d="M56.4903 94.4209C57.2438 94.4209 57.809 94.0442 58.1858 93.479C58.4683 93.6674 58.7509 93.6674 59.1277 93.6674C60.1638 93.6674 61.0115 92.8197 61.1999 91.8778C62.3302 91.8778 63.1779 90.9358 63.1779 89.8055C63.1779 89.3346 62.9895 88.8636 62.7069 88.4869C62.236 87.9217 60.4463 85.7553 60.3522 85.7553C60.3522 85.6611 60.3522 84.625 60.3522 84.625C60.3522 84.0599 59.8812 83.5889 59.4102 83.5889C59.4102 83.5889 58.4683 83.5889 58.3741 83.5889C58.2799 83.4947 57.4322 82.647 57.4322 82.647C57.1496 82.3644 56.8671 82.2702 56.4903 82.2702C56.1135 82.2702 55.7368 82.4586 55.5484 82.647C55.5484 82.647 54.7007 83.4947 54.6065 83.5889C54.5123 83.5889 53.5704 83.5889 53.5704 83.5889C53.0052 83.5889 52.6285 84.0599 52.6285 84.625C52.6285 84.625 52.6285 85.6611 52.6285 85.7553C52.6285 85.7553 50.8388 87.9217 50.2737 88.4869C49.9911 88.8636 49.8027 89.3346 49.8027 89.8055C49.8027 90.9358 50.7446 91.8778 51.7807 91.8778C51.8749 92.9139 52.7226 93.6674 53.8529 93.6674C54.2297 93.6674 54.5123 93.5732 54.7949 93.479C55.1716 94.0442 55.7368 94.4209 56.4903 94.4209Z" fill="#000000" fill-rule="nonzero" opacity="1" stroke="none" vectornator:layerName="path"/>
</g>
<g opacity="1" vectornator:layerName="g">
<path d="M56.4903 33.2907C56.9613 33.2907 57.338 33.0081 57.6206 32.6314L57.2438 28.9579C57.2438 28.8637 57.338 28.6753 57.4322 28.6753C57.6206 28.6753 57.7148 28.7695 57.7148 28.8637L58.3741 32.443C58.5625 32.5372 58.8451 32.6314 59.0335 32.6314C59.787 32.6314 60.3522 32.0662 60.4463 31.4069L58.9393 27.8276C58.8451 27.7334 58.9393 27.545 59.1277 27.4508C59.2219 27.3566 59.4102 27.4508 59.5044 27.545L61.1057 30.7475L61.1057 30.7475C61.8592 30.7475 62.5186 30.1824 62.5186 29.3347C62.5186 29.0521 62.5186 28.7695 62.3302 28.5811L59.6928 25.4728L59.6928 24.0599C59.6928 23.8716 59.5986 23.7774 59.4102 23.7774L58.0916 23.7774L56.9613 22.7413C56.8671 22.5529 56.6787 22.5529 56.4903 22.5529C56.3019 22.5529 56.1135 22.5529 56.0193 22.7413L54.8891 23.8716L53.5704 23.8716C53.382 23.8716 53.2878 23.9657 53.2878 24.1541L53.2878 25.567L50.6504 28.6753C50.4621 28.8637 50.4621 29.1463 50.4621 29.4288C50.4621 30.1824 51.1214 30.8417 51.8749 30.8417L51.8749 30.8417L53.4762 27.6392C53.5704 27.545 53.6646 27.4508 53.8529 27.545C54.0413 27.6392 54.0413 27.7334 54.0413 27.9218L52.5343 31.5011C52.6285 32.2546 53.1936 32.7255 53.9471 32.7255C54.2297 32.7255 54.4181 32.6314 54.6065 32.5372L55.2658 28.9579C55.2658 28.8637 55.4542 28.6753 55.5484 28.7695C55.7368 28.7695 55.831 28.9579 55.7368 29.0521L55.36 32.7255C55.6426 33.0081 56.0193 33.2907 56.4903 33.2907Z" fill="#00a4ed" fill-rule="nonzero" opacity="1" stroke="none" vectornator:layerName="path"/>
<path d="M56.4903 63.5261C56.9613 63.5261 57.338 63.2436 57.6206 62.8668L57.2438 59.1933C57.2438 59.005 57.338 58.9108 57.4322 58.9108C57.6206 58.9108 57.7148 59.005 57.7148 59.0991L58.3741 62.6784C58.5625 62.7726 58.8451 62.8668 59.0335 62.8668C59.787 62.8668 60.3522 62.3017 60.4463 61.6423L58.9393 58.063C58.8451 57.8747 58.9393 57.7805 59.1277 57.6863C59.2219 57.5921 59.4102 57.6863 59.5044 57.7805L61.1057 60.983L61.1057 60.983C61.8592 60.983 62.5186 60.3236 62.5186 59.5701C62.5186 59.2875 62.5186 59.005 62.3302 58.8166L59.6928 55.7083L59.6928 54.2954C59.6928 54.107 59.5986 54.0128 59.4102 54.0128L58.0916 54.0128L56.9613 52.9767C56.8671 52.8825 56.6787 52.7883 56.4903 52.7883C56.3019 52.7883 56.1135 52.8825 56.0193 52.9767L54.8891 54.107L53.5704 54.107C53.382 54.107 53.2878 54.2012 53.2878 54.3896L53.2878 55.8024L50.6504 58.9108C50.4621 59.0991 50.4621 59.3817 50.4621 59.6643C50.4621 60.4178 51.1214 61.0772 51.8749 61.0772L51.8749 61.0772L53.4762 57.8747C53.5704 57.7805 53.6646 57.6863 53.8529 57.7805C54.0413 57.8747 54.0413 57.9688 54.0413 58.1572L52.5343 61.7365C52.6285 62.49 53.1936 62.961 53.9471 62.961C54.2297 62.961 54.4181 62.8668 54.6065 62.7726L55.2658 59.1933C55.2658 59.005 55.4542 58.9108 55.5484 59.005C55.7368 59.005 55.831 59.1933 55.7368 59.2875L55.36 62.961C55.6426 63.2436 56.0193 63.5261 56.4903 63.5261Z" fill="#00a4ed" fill-rule="nonzero" opacity="1" stroke="none" vectornator:layerName="path"/>
<path d="M29.6458 63.5261C30.1167 63.5261 30.4935 63.2436 30.7761 62.8668L30.3993 59.1933C30.3993 59.005 30.4935 58.9108 30.5877 58.9108C30.7761 58.9108 30.8702 59.005 30.8702 59.0991L31.5296 62.6784C31.718 62.7726 32.0005 62.8668 32.1889 62.8668C32.9425 62.8668 33.5076 62.3017 33.6018 61.6423L32.0947 58.063C32.0005 57.8747 32.0947 57.7805 32.1889 57.6863C32.2831 57.5921 32.4715 57.6863 32.5657 57.7805L34.1669 60.983L34.1669 60.983C34.9205 60.983 35.5798 60.3236 35.5798 59.5701C35.5798 59.2875 35.5798 59.005 35.3914 58.8166L32.7541 55.7083L32.7541 54.2954C32.7541 54.107 32.6599 54.0128 32.4715 54.0128L31.1528 54.0128L30.0225 52.8825C29.9283 52.7883 29.7399 52.6941 29.5516 52.6941C29.3632 52.6941 29.1748 52.7883 29.0806 52.8825L27.9503 54.0128L26.6316 54.0128C26.4432 54.0128 26.3491 54.107 26.3491 54.2954L26.3491 55.7083L23.7117 58.8166C23.5233 59.005 23.5233 59.2875 23.5233 59.5701C23.5233 60.3236 24.1827 60.983 24.9362 60.983L24.9362 60.983L26.5374 57.7805C26.6316 57.6863 26.7258 57.5921 26.9142 57.6863C27.0084 57.7805 27.1026 57.8747 27.0084 58.063L25.5013 61.6423C25.5955 62.3958 26.1607 62.8668 26.9142 62.8668C27.1968 62.8668 27.3852 62.7726 27.5735 62.6784L28.2329 59.0991C28.2329 58.9108 28.4213 58.8166 28.5155 58.9108C28.6096 58.9108 28.798 59.0991 28.7038 59.1933L28.3271 62.8668C28.7038 63.2436 29.1748 63.5261 29.6458 63.5261Z" fill="#00a4ed" fill-rule="nonzero" opacity="1" stroke="none" vectornator:layerName="path"/>
<path d="M83.3349 63.5261C83.8058 63.5261 84.1826 63.2436 84.4652 62.8668L84.0884 59.1933C84.0884 59.005 84.1826 58.9108 84.2768 58.9108C84.4652 58.9108 84.5593 59.005 84.5593 59.0991L85.2187 62.6784C85.4071 62.7726 85.6896 62.8668 85.878 62.8668C86.6316 62.8668 87.1967 62.3017 87.1967 61.6423L85.6896 58.063C85.5955 57.8747 85.6896 57.7805 85.878 57.6863C85.9722 57.5921 86.1606 57.6863 86.2548 57.7805L87.856 60.983L87.856 60.983C88.6096 60.983 89.2689 60.3236 89.2689 59.5701C89.2689 59.2875 89.2689 59.005 89.0805 58.8166L86.4432 55.7083L86.4432 54.2954C86.4432 54.107 86.349 54.0128 86.1606 54.0128L84.8419 54.0128L83.7116 52.8825C83.6174 52.7883 83.429 52.6941 83.2407 52.6941C83.0523 52.6941 82.8639 52.7883 82.7697 52.8825L81.6394 54.0128L80.5091 54.0128C80.3207 54.0128 80.2265 54.107 80.2265 54.2954L80.2265 55.7083L77.5892 58.8166C77.4008 59.005 77.4008 59.2875 77.4008 59.5701C77.4008 60.3236 78.0601 60.983 78.8137 60.983L78.8137 60.983L80.4149 57.7805C80.5091 57.6863 80.6033 57.5921 80.7917 57.6863C80.9801 57.7805 80.9801 57.8747 80.9801 58.063L79.473 61.6423C79.5672 62.3958 80.1323 62.8668 80.7917 62.8668C81.0743 62.8668 81.2626 62.7726 81.451 62.6784L82.1104 59.0991C82.1104 58.9108 82.2988 58.8166 82.3929 58.9108C82.5813 58.9108 82.6755 59.0991 82.5813 59.1933L82.2046 62.8668C82.4871 63.2436 82.8639 63.5261 83.3349 63.5261Z" fill="#00a4ed" fill-rule="nonzero" opacity="1" stroke="none" vectornator:layerName="path"/>
<path d="M56.4903 93.7616C56.9613 93.7616 57.338 93.479 57.6206 93.1022L57.2438 89.4288C57.2438 89.2404 57.338 89.1462 57.4322 89.1462C57.6206 89.1462 57.7148 89.2404 57.7148 89.3346L58.3741 92.9139C58.5625 93.0081 58.8451 93.1022 59.0335 93.1022C59.787 93.1022 60.3522 92.5371 60.4463 91.8778L58.9393 88.2985C58.8451 88.1101 58.9393 88.0159 59.1277 87.9217C59.2219 87.8275 59.4102 87.9217 59.5044 88.0159L61.1057 91.2184L61.1057 91.2184C61.8592 91.2184 62.5186 90.5591 62.5186 89.8055C62.5186 89.523 62.5186 89.2404 62.3302 89.052L59.6928 85.9437L59.6928 84.5308C59.6928 84.3424 59.5986 84.2482 59.4102 84.2482L58.0916 84.2482L56.9613 83.2121C56.8671 83.118 56.6787 83.0238 56.4903 83.0238C56.3019 83.0238 56.1135 83.118 56.0193 83.2121L54.8891 84.3424L53.5704 84.3424C53.382 84.3424 53.2878 84.4366 53.2878 84.625L53.2878 86.0379L50.6504 89.1462C50.4621 89.3346 50.4621 89.6172 50.4621 89.8997C50.4621 90.6533 51.1214 91.3126 51.8749 91.3126L51.8749 91.3126L53.4762 88.1101C53.5704 88.0159 53.6646 87.9217 53.8529 88.0159C54.0413 88.1101 54.0413 88.2043 54.0413 88.3927L52.5343 91.9719C52.6285 92.7255 53.1936 93.1964 53.9471 93.1964C54.2297 93.1964 54.4181 93.1022 54.6065 93.0081L55.2658 89.4288C55.2658 89.2404 55.4542 89.1462 55.5484 89.2404C55.7368 89.2404 55.831 89.4288 55.7368 89.523L55.36 93.1964C55.6426 93.479 56.0193 93.7616 56.4903 93.7616Z" fill="#00a4ed" fill-rule="nonzero" opacity="1" stroke="none" vectornator:layerName="path"/>
</g>
<g opacity="1" vectornator:layerName="g">
<path d="M24.0885 23.9657C23.8059 24.0599 23.3349 24.0599 23.0524 24.0599C22.9582 24.0599 22.9582 24.0599 22.864 24.0599L22.864 24.0599L22.2988 21.4226C22.2046 20.9516 21.8279 20.9516 21.8279 21.5168L22.1104 24.2483C22.0162 24.3425 21.6395 25.096 21.2627 25.096C20.886 25.096 20.5092 24.4367 20.415 24.2483L20.6976 21.5168C20.7918 20.9516 20.3208 20.9516 20.2266 21.4226L19.6615 24.0599L19.6615 24.0599C19.5673 24.0599 19.5673 24.0599 19.4731 24.0599C19.1905 24.0599 18.6254 24.0599 18.437 23.9657C18.8137 22.5529 19.5673 19.6329 19.7557 18.5968C19.7557 18.4085 19.6615 18.2201 19.3789 18.2201C19.3789 18.2201 19.2847 18.2201 19.1905 18.2201C18.8137 18.3143 17.8718 18.691 17.5893 18.7852L17.7776 16.6188C17.8718 16.0537 17.4009 16.0537 17.3067 16.5246C16.8357 18.5026 16.6473 21.0458 15.2345 21.9877C15.3287 21.0458 16.2706 14.1698 16.3648 13.3221C16.3648 13.1337 16.3648 12.9454 16.6473 12.8512C16.8357 12.757 16.9299 12.8512 17.1183 13.0395L19.3789 15.1118C19.4731 15.2059 19.5673 15.3001 19.7557 15.2059C19.8498 15.2059 19.944 15.0176 20.0382 14.9234L20.3208 12.286C20.3208 12.1918 20.3208 12.0976 20.2266 12.0034C20.1324 11.9092 20.0382 11.9092 19.944 11.9092C19.944 11.9092 19.7557 11.9092 19.5673 11.9092L19.6615 11.0615C19.944 10.9673 20.6034 10.5906 20.9801 10.5906L20.9801 10.5906L21.0743 10.5906C21.2627 10.5906 21.4511 10.6848 21.6395 10.7789C21.7337 10.8731 21.8279 11.0615 21.8279 11.2499L22.2046 14.9234C22.2046 15.0176 22.2988 15.2059 22.4872 15.2059C22.5814 15.2059 22.7698 15.2059 22.864 15.1118L25.1246 13.0395C25.3129 12.8512 25.4071 12.8512 25.5955 12.8512C25.8781 12.9454 25.8781 13.1337 25.8781 13.3221C25.9723 14.264 26.9142 21.14 27.0084 21.9877C25.5955 21.14 25.4071 18.5026 24.9362 16.5246C24.842 16.0537 24.371 16.0537 24.4652 16.6188L24.6536 18.7852C24.371 18.691 23.3349 18.3143 23.0524 18.2201C22.9582 18.2201 22.9582 18.2201 22.864 18.2201C22.5814 18.2201 22.4872 18.5026 22.4872 18.5968C22.9582 19.6329 23.7117 22.6471 24.0885 23.9657Z" fill="#d7d8da" fill-rule="nonzero" opacity="1" stroke="none" vectornator:layerName="path"/>
<path d="M40.9487 23.9657C40.6661 24.0599 40.1952 24.0599 39.9126 24.0599C39.8184 24.0599 39.7242 24.0599 39.7242 24.0599L39.7242 24.0599L39.0649 21.4226C38.9707 20.9516 38.5939 20.9516 38.5939 21.5168L38.8765 24.2483C38.7823 24.3425 38.4056 25.096 38.0288 25.096C37.652 25.096 37.2753 24.4367 37.1811 24.2483L37.4636 21.5168C37.4636 20.9516 37.0869 20.9516 36.9927 21.4226L36.4275 24.0599L36.4275 24.0599C36.3333 24.0599 36.3333 24.0599 36.2392 24.0599C35.9566 24.0599 35.3914 24.0599 35.203 23.9657C35.5798 22.5529 36.3333 19.6329 36.6159 18.5968C36.6159 18.4085 36.5217 18.2201 36.2392 18.2201C36.2392 18.2201 36.145 18.2201 36.0508 18.2201C35.674 18.3143 34.7321 18.691 34.4495 18.7852L34.6379 16.6188C34.6379 16.0537 34.2611 16.0537 34.1669 16.5246C33.696 18.5026 33.5076 21.0458 32.0947 21.9877C32.1889 21.0458 33.1308 14.1698 33.225 13.3221C33.225 13.1337 33.225 12.9454 33.5076 12.8512C33.696 12.757 33.8844 12.8512 33.9786 13.0395L36.2392 15.1118C36.3333 15.2059 36.4275 15.3001 36.6159 15.2059C36.7101 15.2059 36.8043 15.0176 36.8985 14.9234L37.1811 12.286C37.1811 12.1918 37.1811 12.0976 37.0869 12.0034C36.9927 11.9092 36.8985 11.9092 36.8043 11.9092C36.8043 11.9092 36.6159 11.9092 36.4275 11.9092L36.5217 11.0615C36.8043 10.9673 37.4636 10.5906 37.8404 10.5906L37.8404 10.5906L37.9346 10.5906C38.123 10.5906 38.3114 10.6848 38.4056 10.7789C38.4997 10.8731 38.5939 11.0615 38.6881 11.2499L39.0649 14.9234C39.0649 15.0176 39.1591 15.2059 39.3475 15.2059C39.5359 15.2059 39.63 15.2059 39.7242 15.1118L41.9848 13.0395C42.1732 12.8512 42.2674 12.8512 42.4558 12.8512C42.7384 12.9454 42.7384 13.1337 42.7384 13.3221C42.8326 14.264 43.7745 21.14 43.8687 21.9877C42.4558 21.14 42.2674 18.5026 41.7964 16.5246C41.7023 16.0537 41.2313 16.0537 41.3255 16.6188L41.5139 18.7852C41.1371 18.691 40.1952 18.3143 39.8184 18.2201C39.7242 18.2201 39.7242 18.2201 39.63 18.2201C39.3475 18.2201 39.2533 18.5026 39.2533 18.5968C39.8184 19.6329 40.572 22.6471 40.9487 23.9657Z" fill="#d7d8da" fill-rule="nonzero" opacity="1" stroke="none" vectornator:layerName="path"/>
<path d="M24.0885 43.9343C23.8059 44.0285 23.3349 44.0285 23.0524 44.0285C22.9582 44.0285 22.9582 44.0285 22.864 44.0285L22.864 44.0285L22.2988 41.3912C22.2046 40.9202 21.8279 40.9202 21.8279 41.4853L22.1104 44.2169C22.0162 44.4053 21.6395 45.0646 21.2627 45.0646C20.886 45.0646 20.5092 44.4053 20.415 44.2169L20.6976 41.4853C20.7918 40.9202 20.3208 40.9202 20.2266 41.3912L19.6615 44.0285L19.6615 44.0285C19.5673 44.0285 19.5673 44.0285 19.4731 44.0285C19.1905 44.0285 18.6254 44.0285 18.437 43.9343C18.8137 42.5215 19.5673 39.6015 19.7557 38.5654C19.7557 38.377 19.6615 38.1886 19.3789 38.1886C19.3789 38.1886 19.2847 38.1886 19.1905 38.1886C18.8137 38.2828 17.8718 38.6596 17.5893 38.848L17.7776 36.6816C17.8718 36.1164 17.4009 36.1164 17.3067 36.5874C16.8357 38.4712 16.6473 41.1086 15.2345 42.0505C15.3287 41.1086 16.2706 34.2326 16.3648 33.3849C16.3648 33.1965 16.3648 33.0081 16.6473 32.9139C16.8357 32.8197 17.0241 32.9139 17.1183 33.1023L19.3789 35.1745C19.4731 35.2687 19.5673 35.3629 19.7557 35.2687C19.8498 35.2687 19.944 35.0803 20.0382 34.9861L20.3208 32.3488C20.3208 32.2546 20.3208 32.1604 20.2266 32.0662C20.1324 31.972 20.0382 31.972 19.944 31.972C19.944 31.972 19.7557 31.972 19.5673 31.972L19.6615 31.1243C19.944 31.0301 20.6034 30.6533 20.9801 30.6533L20.9801 30.6533L21.0743 30.6533C21.2627 30.6533 21.4511 30.7475 21.6395 30.8417C21.7337 30.9359 21.8279 31.1243 21.8279 31.3127L22.2046 34.9861C22.2046 35.1745 22.2988 35.2687 22.4872 35.2687C22.5814 35.2687 22.7698 35.2687 22.864 35.1745L25.1246 33.1023C25.3129 32.9139 25.4071 32.9139 25.5955 32.9139C25.8781 33.0081 25.8781 33.1965 25.8781 33.3849C25.9723 34.3268 26.9142 41.2028 27.0084 42.0505C25.5955 41.2028 25.4071 38.5654 24.9362 36.5874C24.842 36.1164 24.371 36.1164 24.4652 36.6816L24.6536 38.848C24.371 38.7538 23.3349 38.377 23.0524 38.1886C22.9582 38.1886 22.9582 38.1886 22.864 38.1886C22.5814 38.1886 22.4872 38.4712 22.4872 38.5654C22.9582 39.5073 23.7117 42.5215 24.0885 43.9343Z" fill="#d7d8da" fill-rule="nonzero" opacity="1" stroke="none" vectornator:layerName="path"/>
<path d="M40.9487 43.9343C40.6661 44.0285 40.1952 44.0285 39.9126 44.0285C39.8184 44.0285 39.7242 44.0285 39.7242 44.0285L39.7242 44.0285L39.0649 41.297C38.9707 40.826 38.5939 40.826 38.5939 41.3912L38.8765 44.1227C38.7823 44.3111 38.4056 44.9704 38.0288 44.9704C37.652 44.9704 37.2753 44.2169 37.1811 44.1227L37.4636 41.3912C37.4636 40.826 37.0869 40.826 36.9927 41.297L36.4275 43.9343L36.4275 43.9343C36.3333 43.9343 36.3333 43.9343 36.2392 43.9343C35.9566 43.9343 35.3914 43.9343 35.203 43.8401C35.5798 42.4273 36.3333 39.5073 36.6159 38.4712C36.6159 38.2828 36.5217 38.0945 36.2392 38.0945C36.2392 38.0945 36.145 38.0945 36.0508 38.0945C35.674 38.1886 34.7321 38.5654 34.4495 38.7538L34.6379 36.5874C34.6379 36.0222 34.2611 36.0222 34.1669 36.4932C33.696 38.377 33.5076 41.0144 32.0947 41.9563C32.1889 41.0144 33.1308 34.1384 33.225 33.2907C33.225 33.1023 33.225 32.9139 33.5076 32.8197C33.696 32.7255 33.8844 32.8197 33.9786 33.0081L36.2392 35.0803C36.3333 35.1745 36.4275 35.2687 36.6159 35.1745C36.7101 35.1745 36.8043 34.9861 36.8985 34.8919L37.1811 32.2546C37.1811 32.1604 37.1811 32.0662 37.0869 31.972C36.9927 31.8778 36.8985 31.8778 36.8043 31.8778C36.8043 31.8778 36.6159 31.8778 36.4275 31.8778L36.5217 31.0301C36.8043 30.9359 37.4636 30.5591 37.8404 30.5591L37.8404 30.5591L37.9346 30.5591C38.123 30.5591 38.3114 30.6533 38.4056 30.7475C38.4997 30.8417 38.5939 31.0301 38.6881 31.2185L39.0649 34.8919C39.0649 35.0803 39.1591 35.1745 39.3475 35.1745C39.5359 35.1745 39.63 35.1745 39.7242 35.0803L41.9848 33.0081C42.1732 32.8197 42.2674 32.8197 42.4558 32.8197C42.7384 32.9139 42.7384 33.1023 42.7384 33.2907C42.8326 34.2326 43.7745 41.1086 43.8687 41.9563C42.4558 41.1086 42.2674 38.4712 41.7964 36.4932C41.7023 36.0222 41.2313 36.0222 41.3255 36.5874L41.5139 38.7538C41.2313 38.6596 40.1952 38.2828 39.9126 38.0945C39.8184 38.0945 39.8184 38.0945 39.7242 38.0945C39.4417 38.0945 39.3475 38.377 39.3475 38.4712C39.8184 39.5073 40.572 42.5215 40.9487 43.9343Z" fill="#d7d8da" fill-rule="nonzero" opacity="1" stroke="none" vectornator:layerName="path"/>
<path d="M77.7776 23.9657C77.495 24.0599 77.024 24.0599 76.7415 24.0599C76.6473 24.0599 76.5531 24.0599 76.5531 24.0599L76.5531 24.0599L75.9879 21.4226C75.8937 20.9516 75.517 20.9516 75.517 21.5168L75.7995 24.2483C75.7054 24.3425 75.3286 25.096 74.9518 25.096C74.5751 25.096 74.1983 24.4367 74.1041 24.2483L74.3867 21.5168C74.4809 20.9516 74.0099 20.9516 73.9157 21.4226L73.3506 24.0599L73.3506 24.0599C73.2564 24.0599 73.2564 24.0599 73.1622 24.0599C72.8796 24.0599 72.3145 24.0599 72.1261 23.9657C72.5028 22.5529 73.2564 19.6329 73.4448 18.5968C73.4448 18.4085 73.3506 18.2201 73.068 18.2201C73.068 18.2201 72.9738 18.2201 72.8796 18.2201C72.5028 18.3143 71.5609 18.691 71.2784 18.7852L71.4667 16.6188C71.5609 16.0537 71.09 16.0537 70.9958 16.5246C70.5248 18.5026 70.3364 21.0458 68.9236 21.9877C69.0178 21.0458 69.9597 14.1698 70.0539 13.3221C70.0539 13.1337 70.0539 12.9454 70.3364 12.8512C70.5248 12.757 70.619 12.8512 70.8074 13.0395L73.068 15.1118C73.1622 15.2059 73.2564 15.3001 73.4448 15.2059C73.539 15.2059 73.6331 15.0176 73.7273 14.9234L74.0099 12.286C74.0099 12.1918 74.0099 12.0976 73.9157 12.0034C73.8215 11.9092 73.7273 11.9092 73.6331 11.9092C73.6331 11.9092 73.4448 11.9092 73.2564 11.9092L73.3506 11.0615C73.6331 10.9673 74.2925 10.5906 74.6692 10.5906L74.6692 10.5906L74.7634 10.5906C74.9518 10.5906 75.1402 10.6848 75.3286 10.7789C75.517 10.8731 75.517 11.0615 75.6112 11.2499L75.9879 14.9234C75.9879 15.0176 76.0821 15.2059 76.2705 15.2059C76.4589 15.2059 76.5531 15.2059 76.6473 15.1118L78.9079 13.0395C79.0962 12.8512 79.1904 12.8512 79.3788 12.8512C79.6614 12.9454 79.6614 13.1337 79.6614 13.3221C79.7556 14.264 80.6975 21.14 80.7917 21.9877C79.3788 21.14 79.1904 18.5026 78.7195 16.5246C78.6253 16.0537 78.1543 16.0537 78.2485 16.6188L78.4369 18.7852C78.1543 18.691 77.1182 18.3143 76.8357 18.2201C76.7415 18.2201 76.6473 18.2201 76.6473 18.2201C76.3647 18.2201 76.2705 18.5026 76.2705 18.5968C76.6473 19.6329 77.495 22.6471 77.7776 23.9657Z" fill="#d7d8da" fill-rule="nonzero" opacity="1" stroke="none" vectornator:layerName="path"/>
<path d="M94.732 23.9657C94.4494 24.0599 93.9785 24.0599 93.6959 24.0599C93.6017 24.0599 93.5075 24.0599 93.5075 24.0599L93.5075 24.0599L92.9424 21.4226C92.8482 20.9516 92.4714 20.9516 92.4714 21.5168L92.754 24.2483C92.6598 24.3425 92.283 25.096 91.9063 25.096C91.5295 25.096 91.1527 24.4367 91.0586 24.2483L91.3411 21.5168C91.4353 20.9516 90.9644 20.9516 90.8702 21.4226L90.305 24.0599L90.305 24.0599C90.2108 24.0599 90.2108 24.0599 90.1166 24.0599C89.8341 24.0599 89.2689 24.0599 89.0805 23.9657C89.4573 22.5529 90.2108 19.6329 90.3992 18.5968C90.3992 18.4085 90.305 18.2201 90.0224 18.2201C90.0224 18.2201 89.9283 18.2201 89.8341 18.2201C89.4573 18.3143 88.5154 18.691 88.2328 18.7852L88.4212 16.6188C88.5154 16.0537 88.0444 16.0537 87.9502 16.5246C87.4793 18.5026 87.2909 21.0458 85.878 21.9877C85.9722 21.0458 86.9141 14.1698 87.0083 13.3221C87.0083 13.1337 87.0083 12.9454 87.2909 12.8512C87.4793 12.757 87.5735 12.8512 87.7619 13.0395L90.0224 15.1118C90.1166 15.2059 90.2108 15.3001 90.3992 15.2059C90.4934 15.2059 90.5876 15.0176 90.6818 14.9234L90.9644 12.286C90.9644 12.1918 90.9644 12.0976 90.8702 12.0034C90.776 11.9092 90.6818 11.9092 90.5876 11.9092C90.5876 11.9092 90.3992 11.9092 90.2108 11.9092L90.305 11.0615C90.5876 10.9673 91.2469 10.5906 91.6237 10.5906L91.6237 10.5906L91.7179 10.5906C91.9063 10.5906 92.0947 10.6848 92.283 10.7789C92.4714 10.8731 92.4714 11.0615 92.5656 11.2499L92.9424 14.9234C92.9424 15.0176 93.0366 15.2059 93.225 15.2059C93.4133 15.2059 93.5075 15.2059 93.6017 15.1118L95.8623 13.0395C96.0507 12.8512 96.1449 12.8512 96.3333 12.8512C96.6158 12.9454 96.6158 13.1337 96.6158 13.3221C96.71 14.264 97.652 21.14 97.7461 21.9877C96.3333 21.14 96.1449 18.5026 95.6739 16.5246C95.5797 16.0537 95.1088 16.0537 95.203 16.6188L95.3914 18.7852C95.1088 18.691 94.0727 18.3143 93.7901 18.2201C93.6959 18.2201 93.6959 18.2201 93.6017 18.2201C93.3191 18.2201 93.225 18.5026 93.225 18.5968C93.5075 19.6329 94.3553 22.6471 94.732 23.9657Z" fill="#d7d8da" fill-rule="nonzero" opacity="1" stroke="none" vectornator:layerName="path"/>
<path d="M77.7776 43.9343C77.495 44.0285 77.024 44.0285 76.7415 44.0285C76.6473 44.0285 76.5531 44.0285 76.5531 44.0285L76.5531 44.0285L75.9879 41.3912C75.8937 40.9202 75.517 40.9202 75.517 41.4853L75.7995 44.2169C75.7054 44.4053 75.3286 45.0646 74.9518 45.0646C74.5751 45.0646 74.1983 44.4053 74.1041 44.2169L74.3867 41.4853C74.4809 40.9202 74.0099 40.9202 73.9157 41.3912L73.3506 44.0285L73.3506 44.0285C73.2564 44.0285 73.2564 44.0285 73.1622 44.0285C72.8796 44.0285 72.3145 44.0285 72.1261 43.9343C72.5028 42.5215 73.2564 39.6015 73.4448 38.5654C73.4448 38.377 73.3506 38.1886 73.068 38.1886C73.068 38.1886 72.9738 38.1886 72.8796 38.1886C72.5028 38.2828 71.5609 38.6596 71.2784 38.848L71.4667 36.6816C71.5609 36.1164 71.09 36.1164 70.9958 36.5874C70.5248 38.4712 70.3364 41.1086 68.9236 42.0505C69.0178 41.1086 69.9597 34.2326 70.0539 33.3849C70.0539 33.1965 70.0539 33.0081 70.3364 32.9139C70.5248 32.8197 70.619 32.9139 70.8074 33.1023L73.068 35.1745C73.1622 35.2687 73.2564 35.3629 73.4448 35.2687C73.539 35.2687 73.6331 35.0803 73.7273 34.9861L74.0099 32.3488C74.0099 32.2546 74.0099 32.1604 73.9157 32.0662C73.8215 31.972 73.7273 31.972 73.6331 31.972C73.6331 31.972 73.4448 31.972 73.2564 31.972L73.3506 31.1243C73.6331 31.0301 74.2925 30.6533 74.6692 30.6533L74.6692 30.6533L74.7634 30.6533C74.9518 30.6533 75.1402 30.7475 75.3286 30.8417C75.517 30.9359 75.517 31.1243 75.6112 31.3127L75.9879 34.9861C75.9879 35.1745 76.0821 35.2687 76.2705 35.2687C76.4589 35.2687 76.5531 35.2687 76.6473 35.1745L78.9079 33.1023C79.0962 32.9139 79.1904 32.9139 79.3788 32.9139C79.6614 33.0081 79.6614 33.1965 79.6614 33.3849C79.7556 34.3268 80.6975 41.2028 80.7917 42.0505C79.3788 41.2028 79.1904 38.5654 78.7195 36.5874C78.6253 36.1164 78.1543 36.1164 78.2485 36.6816L78.4369 38.848C78.1543 38.7538 77.1182 38.377 76.8357 38.1886C76.7415 38.1886 76.6473 38.1886 76.6473 38.1886C76.3647 38.1886 76.2705 38.4712 76.2705 38.5654C76.6473 39.5073 77.495 42.5215 77.7776 43.9343Z" fill="#d7d8da" fill-rule="nonzero" opacity="1" stroke="none" vectornator:layerName="path"/>
<path d="M94.732 43.9343C94.4494 44.0285 93.9785 44.0285 93.6959 44.0285C93.6017 44.0285 93.5075 44.0285 93.5075 44.0285L93.5075 44.0285L92.9424 41.3912C92.8482 40.9202 92.4714 40.9202 92.4714 41.4853L92.754 44.2169C92.6598 44.4053 92.283 45.0646 91.9063 45.0646C91.5295 45.0646 91.1527 44.4053 91.0586 44.2169L91.3411 41.4853C91.4353 40.9202 90.9644 40.9202 90.8702 41.3912L90.305 44.0285L90.305 44.0285C90.2108 44.0285 90.2108 44.0285 90.1166 44.0285C89.8341 44.0285 89.2689 44.0285 89.0805 43.9343C89.4573 42.5215 90.2108 39.6015 90.3992 38.5654C90.3992 38.377 90.305 38.1886 90.0224 38.1886C90.0224 38.1886 89.9283 38.1886 89.8341 38.1886C89.4573 38.2828 88.5154 38.6596 88.2328 38.848L88.4212 36.6816C88.5154 36.1164 88.0444 36.1164 87.9502 36.5874C87.4793 38.4712 87.2909 41.1086 85.878 42.0505C85.9722 41.1086 86.9141 34.2326 87.0083 33.3849C87.0083 33.1965 87.0083 33.0081 87.2909 32.9139C87.4793 32.8197 87.5735 32.9139 87.7619 33.1023L90.0224 35.1745C90.1166 35.2687 90.2108 35.3629 90.3992 35.2687C90.4934 35.2687 90.5876 35.0803 90.6818 34.9861L90.9644 32.3488C90.9644 32.2546 90.9644 32.1604 90.8702 32.0662C90.776 31.972 90.6818 31.972 90.5876 31.972C90.5876 31.972 90.3992 31.972 90.2108 31.972L90.305 31.1243C90.5876 31.0301 91.2469 30.6533 91.6237 30.6533L91.6237 30.6533L91.7179 30.6533C91.9063 30.6533 92.0947 30.7475 92.283 30.8417C92.4714 30.9359 92.4714 31.1243 92.5656 31.3127L92.9424 34.9861C92.9424 35.1745 93.0366 35.2687 93.225 35.2687C93.4133 35.2687 93.5075 35.2687 93.6017 35.1745L95.8623 33.1023C96.0507 32.9139 96.1449 32.9139 96.3333 32.9139C96.6158 33.0081 96.6158 33.1965 96.6158 33.3849C96.71 34.3268 97.652 41.2028 97.7461 42.0505C96.3333 41.2028 96.1449 38.5654 95.6739 36.5874C95.5797 36.1164 95.1088 36.1164 95.203 36.6816L95.3914 38.848C95.1088 38.7538 94.0727 38.377 93.7901 38.1886C93.6959 38.1886 93.6959 38.1886 93.6017 38.1886C93.3191 38.1886 93.225 38.4712 93.225 38.5654C93.5075 39.5073 94.3553 42.5215 94.732 43.9343Z" fill="#d7d8da" fill-rule="nonzero" opacity="1" stroke="none" vectornator:layerName="path"/>
<path d="M24.0885 84.4366C23.8059 84.5308 23.3349 84.5308 23.0524 84.5308C22.9582 84.5308 22.9582 84.5308 22.864 84.5308L22.864 84.5308L22.2046 81.8935C22.1104 81.4225 21.7337 81.4225 21.7337 81.9877L22.0162 84.7192C21.9221 84.9076 21.5453 85.5669 21.1685 85.5669C20.7918 85.5669 20.415 84.9076 20.3208 84.7192L20.6034 81.9877C20.6976 81.4225 20.2266 81.4225 20.1324 81.8935L19.5673 84.5308L19.5673 84.5308C19.4731 84.5308 19.4731 84.5308 19.3789 84.5308C19.0963 84.5308 18.5312 84.5308 18.3428 84.4366C18.7195 83.0238 19.4731 80.1038 19.6615 79.0677C19.6615 78.8793 19.5673 78.691 19.2847 78.691C19.2847 78.691 19.1905 78.691 19.0963 78.691C18.7195 78.7851 17.7776 79.1619 17.4951 79.3503L17.7776 77.1839C17.8718 76.6187 17.4009 76.6187 17.3067 77.0897C16.8357 79.0677 16.6473 81.6109 15.2345 82.5528C15.3287 81.6109 16.2706 74.7349 16.3648 73.8872C16.3648 73.6988 16.3648 73.5104 16.6473 73.4162C16.8357 73.322 17.0241 73.4162 17.1183 73.6046L19.3789 75.6768C19.4731 75.771 19.5673 75.8652 19.7557 75.771C19.8498 75.6768 19.944 75.5826 20.0382 75.4884L20.3208 72.8511C20.3208 72.7569 20.3208 72.6627 20.2266 72.5685C20.1324 72.4743 20.1324 72.4743 20.0382 72.4743C20.0382 72.4743 19.8498 72.4743 19.6615 72.4743L19.7557 71.6266C20.0382 71.5324 20.6976 71.1556 21.0743 71.1556L21.0743 71.1556L21.1685 71.1556C21.3569 71.1556 21.5453 71.2498 21.7337 71.344C21.8279 71.4382 21.9221 71.6266 21.9221 71.815L22.2988 75.4884C22.2988 75.6768 22.393 75.771 22.5814 75.771C22.6756 75.771 22.864 75.771 22.9582 75.6768L25.2188 73.6046C25.4071 73.4162 25.5013 73.4162 25.6897 73.4162C25.9723 73.5104 25.9723 73.6988 25.9723 73.8872C26.0665 74.8291 27.0084 81.7051 27.1026 82.5528C25.6897 81.7051 25.5013 79.0677 25.0304 77.0897C24.9362 76.6187 24.4652 76.6187 24.5594 77.1839L24.7478 79.3503C24.4652 79.2561 23.4291 78.8793 23.1465 78.691C23.0524 78.691 23.0524 78.691 22.9582 78.691C22.6756 78.691 22.5814 78.9735 22.5814 79.0677C22.9582 80.1038 23.7117 83.118 24.0885 84.4366Z" fill="#d7d8da" fill-rule="nonzero" opacity="1" stroke="none" vectornator:layerName="path"/>
<path d="M40.9487 84.4366C40.6661 84.5308 40.1952 84.5308 39.9126 84.5308C39.8184 84.5308 39.7242 84.5308 39.7242 84.5308L39.7242 84.5308L39.0649 81.8935C38.9707 81.4225 38.5939 81.4225 38.5939 81.9877L38.8765 84.7192C38.7823 84.9076 38.4056 85.5669 38.0288 85.5669C37.652 85.5669 37.2753 84.8134 37.1811 84.7192L37.4636 81.9877C37.4636 81.4225 37.0869 81.4225 36.9927 81.8935L36.4275 84.5308L36.4275 84.5308C36.3333 84.5308 36.3333 84.5308 36.2392 84.5308C35.9566 84.5308 35.3914 84.5308 35.203 84.4366C35.5798 83.0238 36.3333 80.1038 36.6159 79.0677C36.6159 78.8793 36.5217 78.691 36.2392 78.691C36.2392 78.691 36.145 78.691 36.0508 78.691C35.674 78.7851 34.7321 79.1619 34.4495 79.3503L34.6379 77.1839C34.6379 76.6187 34.2611 76.6187 34.1669 77.0897C33.696 79.0677 33.5076 81.6109 32.0947 82.5528C32.1889 81.6109 33.1308 74.7349 33.225 73.8872C33.225 73.6988 33.225 73.5104 33.5076 73.4162C33.696 73.322 33.8844 73.4162 33.9786 73.6046L36.2392 75.6768C36.3333 75.771 36.4275 75.8652 36.6159 75.771C36.7101 75.6768 36.8043 75.5826 36.8985 75.4884L37.1811 72.8511C37.1811 72.7569 37.1811 72.6627 37.0869 72.5685C36.9927 72.4743 36.9927 72.4743 36.8985 72.4743C36.8985 72.4743 36.7101 72.4743 36.5217 72.4743L36.6159 71.6266C36.8985 71.5324 37.5578 71.1556 37.9346 71.1556L37.9346 71.1556L38.0288 71.1556C38.2172 71.1556 38.4056 71.2498 38.4997 71.344C38.5939 71.4382 38.6881 71.6266 38.7823 71.815L39.1591 75.4884C39.1591 75.6768 39.2533 75.771 39.4417 75.771C39.63 75.771 39.7242 75.771 39.8184 75.6768L42.079 73.6046C42.2674 73.4162 42.3616 73.4162 42.55 73.4162C42.8326 73.5104 42.8326 73.6988 42.8326 73.8872C42.9267 74.8291 43.8687 81.7051 43.9628 82.5528C42.55 81.7051 42.3616 79.0677 41.8906 77.0897C41.7964 76.6187 41.3255 76.6187 41.4197 77.1839L41.6081 79.3503C41.3255 79.2561 40.2894 78.8793 40.0068 78.691C39.9126 78.691 39.9126 78.691 39.8184 78.691C39.5359 78.691 39.4417 78.9735 39.4417 79.0677C39.8184 80.1038 40.572 83.118 40.9487 84.4366Z" fill="#d7d8da" fill-rule="nonzero" opacity="1" stroke="none" vectornator:layerName="path"/>
<path d="M24.0885 104.405C23.8059 104.499 23.3349 104.499 23.0524 104.499C22.9582 104.499 22.9582 104.499 22.864 104.499L22.864 104.499L22.2988 101.862C22.2046 101.391 21.8279 101.391 21.8279 101.956L22.1104 104.688C22.0162 104.876 21.6395 105.536 21.2627 105.536C20.886 105.536 20.5092 104.876 20.415 104.688L20.6976 101.956C20.7918 101.391 20.3208 101.391 20.2266 101.862L19.6615 104.499L19.6615 104.499C19.5673 104.499 19.5673 104.499 19.4731 104.499C19.1905 104.499 18.6254 104.499 18.437 104.405C18.8137 102.992 19.5673 100.072 19.7557 99.0363C19.7557 98.8479 19.6615 98.6595 19.3789 98.6595C19.3789 98.6595 19.2847 98.6595 19.1905 98.6595C18.8137 98.7537 17.8718 99.1305 17.5893 99.3189L17.7776 97.1525C17.7776 96.4931 17.4009 96.4931 17.3067 96.9641C16.8357 98.9421 16.6473 101.485 15.2345 102.427C15.3287 101.485 16.2706 94.6093 16.3648 93.7616C16.3648 93.5732 16.3648 93.3848 16.6473 93.2906C16.8357 93.1964 17.0241 93.2906 17.1183 93.479L19.3789 95.5512C19.4731 95.6454 19.5673 95.7396 19.7557 95.6454C19.8498 95.6454 19.944 95.457 20.0382 95.3628L20.3208 92.7255C20.3208 92.6313 20.3208 92.5371 20.2266 92.4429C20.1324 92.3487 20.0382 92.3487 19.944 92.3487C19.944 92.3487 19.7557 92.3487 19.5673 92.3487L19.6615 91.501C19.944 91.4068 20.6034 91.03 20.9801 91.03L20.9801 91.03L21.0743 91.03C21.2627 91.03 21.4511 91.1242 21.6395 91.2184C21.7337 91.3126 21.8279 91.501 21.8279 91.6894L22.2046 95.3628C22.2046 95.5512 22.2988 95.6454 22.4872 95.6454C22.5814 95.6454 22.7698 95.6454 22.864 95.5512L25.1246 93.479C25.3129 93.2906 25.4071 93.2906 25.5955 93.2906C25.8781 93.3848 25.8781 93.5732 25.8781 93.7616C25.9723 94.7035 26.9142 101.579 27.0084 102.427C25.5955 101.579 25.4071 98.9421 24.9362 96.9641C24.842 96.4931 24.371 96.4931 24.4652 97.0583L24.6536 99.2247C24.371 99.1305 23.3349 98.7537 23.0524 98.5653C22.9582 98.5653 22.9582 98.5653 22.864 98.5653C22.5814 98.5653 22.4872 98.8479 22.4872 98.9421C22.9582 99.9782 23.7117 102.992 24.0885 104.405Z" fill="#d7d8da" fill-rule="nonzero" opacity="1" stroke="none" vectornator:layerName="path"/>
<path d="M40.9487 104.405C40.6661 104.499 40.1952 104.499 39.9126 104.499C39.8184 104.499 39.7242 104.499 39.7242 104.499L39.7242 104.499L39.1591 101.862C39.0649 101.391 38.6881 101.391 38.6881 101.956L38.9707 104.688C38.8765 104.876 38.4997 105.536 38.123 105.536C37.7462 105.536 37.3694 104.876 37.2753 104.688L37.5578 101.956C37.5578 101.391 37.1811 101.391 37.0869 101.862L36.5217 104.499L36.5217 104.499C36.4275 104.499 36.4275 104.499 36.3333 104.499C36.0508 104.499 35.4856 104.499 35.2972 104.405C35.674 102.992 36.4275 100.072 36.7101 99.0363C36.7101 98.8479 36.6159 98.6595 36.3333 98.6595C36.3333 98.6595 36.2392 98.6595 36.145 98.6595C35.7682 98.7537 34.8263 99.1305 34.5437 99.3189L34.7321 97.1525C34.7321 96.5873 34.3553 96.5873 34.2611 97.0583C33.7902 99.0363 33.6018 101.579 32.1889 102.521C32.2831 101.579 33.225 94.7035 33.3192 93.8558C33.3192 93.6674 33.3192 93.479 33.6018 93.3848C33.7902 93.2906 33.9786 93.3848 34.0727 93.5732L36.3333 95.6454C36.4275 95.7396 36.5217 95.8338 36.7101 95.7396C36.8043 95.7396 36.8985 95.5512 36.9927 95.457L37.2753 92.8197C37.2753 92.7255 37.2753 92.6313 37.1811 92.5371C37.0869 92.4429 36.9927 92.4429 36.8985 92.4429C36.8985 92.4429 36.7101 92.4429 36.5217 92.4429L36.6159 91.5952C36.8985 91.501 37.5578 91.1242 37.9346 91.1242L37.9346 91.1242L38.0288 91.1242C38.2172 91.1242 38.4056 91.2184 38.4997 91.3126C38.5939 91.4068 38.6881 91.5952 38.7823 91.7836L39.1591 95.457C39.1591 95.6454 39.2533 95.7396 39.4417 95.7396C39.63 95.7396 39.7242 95.7396 39.8184 95.6454L42.079 93.5732C42.2674 93.3848 42.3616 93.3848 42.55 93.3848C42.8326 93.479 42.8326 93.6674 42.8326 93.8558C42.9267 94.7977 43.8687 101.674 43.9628 102.521C42.55 101.674 42.3616 99.0363 41.8906 97.0583C41.7964 96.5873 41.3255 96.5873 41.4197 97.1525L41.6081 99.3189C41.3255 99.2247 40.2894 98.8479 40.0068 98.6595C39.9126 98.6595 39.9126 98.6595 39.8184 98.6595C39.5359 98.6595 39.4417 98.9421 39.4417 99.0363C39.8184 99.9782 40.572 102.992 40.9487 104.405Z" fill="#d7d8da" fill-rule="nonzero" opacity="1" stroke="none" vectornator:layerName="path"/>
<path d="M77.7776 84.4366C77.495 84.5308 77.024 84.5308 76.7415 84.5308C76.6473 84.5308 76.5531 84.5308 76.5531 84.5308L76.5531 84.5308L75.9879 81.8935C75.8937 81.4225 75.517 81.4225 75.517 81.9877L75.7995 84.7192C75.7054 84.9076 75.3286 85.5669 74.9518 85.5669C74.5751 85.5669 74.1983 84.9076 74.1041 84.7192L74.3867 81.9877C74.4809 81.4225 74.0099 81.4225 73.9157 81.8935L73.3506 84.5308L73.3506 84.5308C73.2564 84.5308 73.2564 84.5308 73.1622 84.5308C72.8796 84.5308 72.3145 84.5308 72.1261 84.4366C72.5028 83.0238 73.2564 80.1038 73.4448 79.0677C73.4448 78.8793 73.3506 78.691 73.068 78.691C73.068 78.691 72.9738 78.691 72.8796 78.691C72.5028 78.7851 71.5609 79.1619 71.2784 79.3503L71.4667 77.1839C71.5609 76.6187 71.09 76.6187 70.9958 77.0897C70.5248 79.0677 70.3364 81.6109 68.9236 82.5528C69.0178 81.6109 69.9597 74.7349 70.0539 73.8872C70.0539 73.6988 70.0539 73.5104 70.3364 73.4162C70.5248 73.322 70.619 73.4162 70.8074 73.6046L73.068 75.6768C73.1622 75.771 73.2564 75.8652 73.4448 75.771C73.539 75.6768 73.6331 75.5826 73.7273 75.4884L74.0099 72.8511C74.0099 72.7569 74.0099 72.6627 73.9157 72.5685C73.8215 72.4743 73.7273 72.4743 73.6331 72.4743C73.6331 72.4743 73.4448 72.4743 73.2564 72.4743L73.3506 71.6266C73.6331 71.5324 74.2925 71.1556 74.6692 71.1556L74.6692 71.1556L74.7634 71.1556C74.9518 71.1556 75.1402 71.2498 75.3286 71.344C75.517 71.4382 75.517 71.6266 75.6112 71.815L75.9879 75.4884C75.9879 75.6768 76.0821 75.771 76.2705 75.771C76.4589 75.771 76.5531 75.771 76.6473 75.6768L78.9079 73.6046C79.0962 73.4162 79.1904 73.4162 79.3788 73.4162C79.6614 73.5104 79.6614 73.6988 79.6614 73.8872C79.7556 74.8291 80.6975 81.7051 80.7917 82.5528C79.3788 81.7051 79.1904 79.0677 78.7195 77.0897C78.6253 76.6187 78.1543 76.6187 78.2485 77.1839L78.4369 79.3503C78.1543 79.2561 77.1182 78.8793 76.8357 78.691C76.7415 78.691 76.6473 78.691 76.6473 78.691C76.3647 78.691 76.2705 78.9735 76.2705 79.0677C76.6473 80.1038 77.495 83.118 77.7776 84.4366Z" fill="#d7d8da" fill-rule="nonzero" opacity="1" stroke="none" vectornator:layerName="path"/>
<path d="M94.732 84.4366C94.4494 84.5308 93.9785 84.5308 93.6959 84.5308C93.6017 84.5308 93.5075 84.5308 93.5075 84.5308L93.5075 84.5308L92.8482 81.8935C92.754 81.4225 92.3772 81.4225 92.3772 81.9877L92.6598 84.7192C92.5656 84.9076 92.1889 85.5669 91.8121 85.5669C91.4353 85.5669 91.0586 84.9076 90.9644 84.7192L91.2469 81.9877C91.3411 81.4225 90.8702 81.4225 90.776 81.8935L90.2108 84.5308L90.2108 84.5308C90.1166 84.5308 90.1166 84.5308 90.0224 84.5308C89.7399 84.5308 89.1747 84.5308 88.9863 84.4366C89.3631 83.0238 90.1166 80.1038 90.305 79.0677C90.305 78.8793 90.2108 78.691 89.9283 78.691C89.9283 78.691 89.8341 78.691 89.7399 78.691C89.3631 78.7851 88.4212 79.1619 88.1386 79.3503L88.327 77.1839C88.4212 76.6187 87.9502 76.6187 87.856 77.0897C87.3851 79.0677 87.1967 81.6109 85.7838 82.5528C85.878 81.6109 86.8199 74.7349 86.9141 73.8872C86.9141 73.6988 86.9141 73.5104 87.1967 73.4162C87.3851 73.322 87.4793 73.4162 87.6677 73.6046L89.9283 75.6768C90.0224 75.771 90.1166 75.8652 90.305 75.771C90.3992 75.6768 90.4934 75.5826 90.5876 75.4884L90.8702 72.8511C90.8702 72.7569 90.8702 72.6627 90.776 72.5685C90.6818 72.4743 90.776 72.4743 90.6818 72.4743C90.6818 72.4743 90.4934 72.4743 90.305 72.4743L90.3992 71.6266C90.6818 71.5324 91.3411 71.1556 91.7179 71.1556L91.7179 71.1556L91.8121 71.1556C92.0005 71.1556 92.1889 71.2498 92.3772 71.344C92.5656 71.4382 92.5656 71.6266 92.6598 71.815L93.0366 75.4884C93.0366 75.6768 93.1308 75.771 93.3191 75.771C93.5075 75.771 93.6017 75.771 93.6959 75.6768L95.9565 73.6046C96.1449 73.4162 96.2391 73.4162 96.4275 73.4162C96.71 73.5104 96.71 73.6988 96.71 73.8872C96.8042 74.8291 97.7461 81.7051 97.8403 82.5528C96.4275 81.7051 96.2391 79.0677 95.7681 77.0897C95.6739 76.6187 95.203 76.6187 95.2972 77.1839L95.4855 79.3503C95.203 79.2561 94.1669 78.8793 93.8843 78.691C93.7901 78.691 93.7901 78.691 93.6959 78.691C93.4133 78.691 93.3191 78.9735 93.3191 79.0677C93.5075 80.1038 94.3553 83.118 94.732 84.4366Z" fill="#d7d8da" fill-rule="nonzero" opacity="1" stroke="none" vectornator:layerName="path"/>
<path d="M77.7776 104.405C77.495 104.499 77.024 104.499 76.7415 104.499C76.6473 104.499 76.5531 104.499 76.5531 104.499L76.5531 104.499L75.9879 101.862C75.8937 101.391 75.517 101.391 75.517 101.956L75.7995 104.688C75.7054 104.876 75.3286 105.536 74.9518 105.536C74.5751 105.536 74.1983 104.876 74.1041 104.688L74.3867 101.956C74.4809 101.391 74.0099 101.391 73.9157 101.862L73.3506 104.499L73.3506 104.499C73.2564 104.499 73.2564 104.499 73.1622 104.499C72.8796 104.499 72.3145 104.499 72.1261 104.405C72.5028 102.992 73.2564 100.072 73.4448 99.0363C73.4448 98.8479 73.3506 98.6595 73.068 98.6595C73.068 98.6595 72.9738 98.6595 72.8796 98.6595C72.5028 98.7537 71.5609 99.1305 71.2784 99.3189L71.4667 97.1525C71.5609 96.5873 71.09 96.5873 70.9958 97.0583C70.5248 99.0363 70.3364 101.579 68.9236 102.521C69.0178 101.579 69.9597 94.7035 70.0539 93.8558C70.0539 93.6674 70.0539 93.479 70.3364 93.3848C70.5248 93.2906 70.619 93.3848 70.8074 93.5732L73.068 95.6454C73.1622 95.7396 73.2564 95.8338 73.4448 95.7396C73.539 95.7396 73.6331 95.5512 73.7273 95.457L74.0099 92.8197C74.0099 92.7255 74.0099 92.6313 73.9157 92.5371C73.8215 92.4429 73.7273 92.4429 73.6331 92.4429C73.6331 92.4429 73.4448 92.4429 73.2564 92.4429L73.3506 91.5952C73.6331 91.501 74.2925 91.1242 74.6692 91.1242L74.6692 91.1242L74.7634 91.1242C74.9518 91.1242 75.1402 91.2184 75.3286 91.3126C75.517 91.4068 75.517 91.5952 75.6112 91.7836L75.9879 95.457C75.9879 95.6454 76.0821 95.7396 76.2705 95.7396C76.4589 95.7396 76.5531 95.7396 76.6473 95.6454L78.9079 93.5732C79.0962 93.3848 79.1904 93.3848 79.3788 93.3848C79.6614 93.479 79.6614 93.6674 79.6614 93.8558C79.7556 94.7977 80.6975 101.674 80.7917 102.521C79.3788 101.674 79.1904 99.0363 78.7195 97.0583C78.6253 96.5873 78.1543 96.5873 78.2485 97.1525L78.4369 99.3189C78.1543 99.2247 77.1182 98.8479 76.8357 98.6595C76.7415 98.6595 76.6473 98.6595 76.6473 98.6595C76.3647 98.6595 76.2705 98.9421 76.2705 99.0363C76.6473 99.9782 77.495 102.992 77.7776 104.405Z" fill="#d7d8da" fill-rule="nonzero" opacity="1" stroke="none" vectornator:layerName="path"/>
<path d="M94.732 104.405C94.4494 104.499 93.9785 104.499 93.6959 104.499C93.6017 104.499 93.5075 104.499 93.5075 104.499L93.5075 104.499L92.9424 101.862C92.8482 101.391 92.4714 101.391 92.4714 101.956L92.754 104.688C92.6598 104.876 92.283 105.536 91.9063 105.536C91.5295 105.536 91.1527 104.876 91.0586 104.688L91.3411 101.956C91.4353 101.391 90.9644 101.391 90.8702 101.862L90.305 104.499L90.305 104.499C90.2108 104.499 90.2108 104.499 90.1166 104.499C89.8341 104.499 89.2689 104.499 89.0805 104.405C89.4573 102.992 90.2108 100.072 90.3992 99.0363C90.3992 98.8479 90.305 98.6595 90.0224 98.6595C90.0224 98.6595 89.9283 98.6595 89.8341 98.6595C89.4573 98.7537 88.5154 99.1305 88.2328 99.3189L88.4212 97.1525C88.5154 96.5873 88.0444 96.5873 87.9502 97.0583C87.4793 99.0363 87.2909 101.579 85.878 102.521C85.9722 101.579 86.9141 94.7035 87.0083 93.8558C87.0083 93.6674 87.0083 93.479 87.2909 93.3848C87.4793 93.2906 87.5735 93.3848 87.7619 93.5732L90.0224 95.6454C90.1166 95.7396 90.2108 95.8338 90.3992 95.7396C90.4934 95.7396 90.5876 95.5512 90.6818 95.457L90.9644 92.8197C90.9644 92.7255 90.9644 92.6313 90.8702 92.5371C90.776 92.4429 90.6818 92.4429 90.5876 92.4429C90.5876 92.4429 90.3992 92.4429 90.2108 92.4429L90.305 91.5952C90.5876 91.501 91.2469 91.1242 91.6237 91.1242L91.6237 91.1242L91.7179 91.1242C91.9063 91.1242 92.0947 91.2184 92.283 91.3126C92.4714 91.4068 92.4714 91.5952 92.5656 91.7836L92.9424 95.457C92.9424 95.6454 93.0366 95.7396 93.225 95.7396C93.4133 95.7396 93.5075 95.7396 93.6017 95.6454L95.8623 93.5732C96.0507 93.3848 96.1449 93.3848 96.3333 93.3848C96.6158 93.479 96.6158 93.6674 96.6158 93.8558C96.71 94.7977 97.652 101.674 97.7461 102.521C96.3333 101.674 96.1449 99.0363 95.6739 97.0583C95.5797 96.5873 95.1088 96.5873 95.203 97.1525L95.3914 99.3189C95.1088 99.2247 94.0727 98.8479 93.7901 98.6595C93.6959 98.6595 93.6959 98.6595 93.6017 98.6595C93.3191 98.6595 93.225 98.9421 93.225 99.0363C93.5075 99.9782 94.3553 102.992 94.732 104.405Z" fill="#d7d8da" fill-rule="nonzero" opacity="1" stroke="none" vectornator:layerName="path"/>
</g>
</g>
</g>
</svg>
